<mxfile host="app.diagrams.net" modified="2023-05-11T15:46:01.576Z" agent="Mozilla/5.0 (Macintosh; Intel Mac OS X 10_15_7) AppleWebKit/605.1.15 (KHTML, like Gecko) Version/16.4 Safari/605.1.15" etag="84VdmivCc73BSv_XPQQQ" version="21.2.9" type="github">
  <diagram name="Pagina-1" id="pITJj5n3sDy8qd75fnIN">
    <mxGraphModel dx="788" dy="1267" grid="1" gridSize="10" guides="1" tooltips="1" connect="1" arrows="1" fold="1" page="1" pageScale="1" pageWidth="827" pageHeight="1169" math="0" shadow="0">
      <root>
        <mxCell id="0" />
        <mxCell id="1" parent="0" />
        <mxCell id="449DA2jyop-zjnHFzWrN-1" value="&lt;font face=&quot;Courier New&quot;&gt;&lt;b&gt;lack of privacy&amp;nbsp;&lt;br&gt;in Public Blockchain&amp;nbsp;&lt;/b&gt;&lt;br&gt;&lt;/font&gt;" style="image;aspect=fixed;html=1;points=[];align=center;fontSize=12;image=img/lib/azure2/management_governance/User_Privacy.svg;" vertex="1" parent="1">
          <mxGeometry x="130" y="150" width="64" height="68" as="geometry" />
        </mxCell>
        <mxCell id="449DA2jyop-zjnHFzWrN-3" value="" style="shape=singleArrow;whiteSpace=wrap;html=1;fillColor=#f8cecc;strokeColor=#b85450;" vertex="1" parent="1">
          <mxGeometry x="230" y="154" width="100" height="60" as="geometry" />
        </mxCell>
        <mxCell id="449DA2jyop-zjnHFzWrN-5" value="&lt;font face=&quot;Courier New&quot;&gt;&lt;b&gt;Privacy Preserving Protocols&lt;/b&gt;&lt;/font&gt;" style="verticalLabelPosition=bottom;verticalAlign=top;html=1;shape=mxgraph.basic.patternFillRect;fillStyle=diag;step=5;fillStrokeWidth=0.2;fillStrokeColor=#dddddd;dashed=1;dashPattern=8 8;gradientDirection=radial;shadow=0;fillColor=#60a917;fontColor=#ffffff;strokeColor=#2D7600;" vertex="1" parent="1">
          <mxGeometry x="466.81" y="180" width="290" height="140" as="geometry" />
        </mxCell>
        <mxCell id="449DA2jyop-zjnHFzWrN-6" value="" style="shape=image;html=1;verticalAlign=top;verticalLabelPosition=bottom;labelBackgroundColor=#ffffff;imageAspect=0;aspect=fixed;image=https://cdn4.iconfinder.com/data/icons/the-shine-of-small-things/128/shining_mix__lock-128.png" vertex="1" parent="1">
          <mxGeometry x="564.31" y="202.5" width="95" height="95" as="geometry" />
        </mxCell>
        <mxCell id="449DA2jyop-zjnHFzWrN-7" value="" style="shape=image;verticalLabelPosition=bottom;labelBackgroundColor=default;verticalAlign=top;aspect=fixed;imageAspect=0;image=data:image/png,iVBORw0KGgoAAAANSUhEUgAAAhMAAAGnCAYAAAANENXaAAAAAXNSR0IArs4c6QAAAIRlWElmTU0AKgAAAAgABQESAAMAAAABAAEAAAEaAAUAAAABAAAASgEbAAUAAAABAAAAUgEoAAMAAAABAAIAAIdpAAQAAAABAAAAWgAAAAAAAABIAAAAAQAAAEgAAAABAAOgAQADAAAAAQABAACgAgAEAAAAAQAAAhOgAwAEAAAAAQAAAacAAAAA+JorVwAAAAlwSFlzAAALEwAACxMBAJqcGAAAQABJREFUeAHsnQdgVEUTx//pPSGV3kLvVUBFQZEiIGAHUcCGBQvYsCuiYvlUULGBDRFUFBsiitJ7VxGR3ksgpIf0++a/4WISAqTcXe6SWT1y996W2d+7eztvdnbWzSIJmpSAElACSkAJKAElUEoC7qUsp8WUgBJQAkpACSgBJWAIqDKhXwQloASUgBJQAkqgTARUmSgTPi2sBJSAElACSkAJqDKh3wEloASUgBJQAkqgTARUmSgTPi2sBJSAElACSkAJeCoCJaAElIASKF8CP/zwA1566SW4ubkhOzsbkZGR6NGjB0aPHo2TJ0/iuuuuw4kTJ5CTk2NelJZ5u3fvjtWrVyMzM9O8li1bhv/973/4/vvv4eXlhcsuuwxt2rTB888/D29vb7i7u5t81apVM3lYz86dO/Hkk09i8eLF8PHxQceOHREUFIQhQ4bgqaeegqenpynDvNbyCxcuNHlWrFiBhx56CP/88w9q1qxpXm+++SaaNGnC7JoqEQG1TFSii61dVQJKwDkJtGrVCrt27cKBAwfMQPzXX39hzJgxePDBB+Hn5weeX7lypRnMmzZtioYNG4J5Dh06ZAb75cuXG6WBCkTnzp2xf/9+ULFguebNm5tXRkYG1q5dixYtWqBnz54GRFpaGlq3bo25c+di1KhR6NWrF77++mvMnDkTDRo0MHlYd8uWLdG4cWMEBwdj/fr1RuHhyX79+mH37t149NFHERISgl9//dXIaQrqP5WLAONMaFICSkAJKIHyJSADuWXo0KF5QowbN44xgCx79+41x/z9/S1z5syxiBXDMmnSJItYJSxvv/22JT093eSbNm1aXllRQCz3339/3me+effddy1i8Shw7IknnrCw3piYmLzj48ePt4jyYD7PmjXLIpYJ8/62226zLFmyxBIQEJCXl/JNnjw57/MFF1xg+eOPP/I+65vKQwCVp6vaUyWgBJSA8xKQaQ3L4MGD8wTcunWrRaYVLGIpMMfCwsIs4eHhZvCvU6dOXj6+GTFihDnO92+99ZZRLmR6hB/zkkw/nKZMNGvWzNKtWzeLTK3k5cv/ZsaMGaYutkfF4ZdffjGnZbrF/B04cKA57uvra7nxxhst27Zty19c31ciAjrNUbkMUdpbJaAEXIQA/RPoF2FN9KXo1KkTatWqZaYZ6CfB6QwmTomkpqZi+vTpmDBhAnr37m38H6xlz/aXUyP52ykqrygN5jDzieUhL/93330HsZbgzjvvNNMbnAr5+eefi6pCj1VwAqpMVPALrN1TAkrAdQjIg6wRVqYuIFYAozTQIZKJPg/Dhg3DlClTzGvkyJE477zzzDn6UdDHgcfoR3HzzTfnDfgmg/zDuq31W4/ddNNNWLVqlfHVsB47cuQIqCQwMb+HhwfoVPncc8+hUaNGaNu2rXHeZDk6isp0C9544w1s377d+FXItIe1Kv1biQi4yZcl99tbiTqtXVUCSkAJOBMBrr6QKQ7IdAHq1auHxMRE45D5zDPPgC+uyuAKitq1ayMiIsKIzlUYgYGBeYrAxIkTjYVCfCCQkpKS173Zs2ebOuLi4nD06FHjlFm1alVjQaB1gw6YVEDat29vlJfNmzeDeemIydUkdArlOVoluLJky5YtkOkPIyMtEnXr1kX9+vVNHTLNgfnz5xt58wTQN5WCgC4NrRSXWTupBJSAMxPgSggu4eQyTCbxZcALL7xgFAxOb1SpUgXnn39+AWsDV1jQMmBNHPg//vhjPPzww9ZD5m9oaCjEadKstqCiwudH8YEw59jemjVr8PTTT5uloVx6ypUen3zyiVn5weWeVBasicoOp1rEd8NYJH7//XejeFAZ4UqP999/XxUJK6xK9lctE5Xsgmt3lYASUAJFEaCSQWWC0xolTZyCKY7vRUnr1fyuQ0CVCde5ViqpElACSkAJKAGnJKAOmE55WVQoJaAElIASUAKuQ0CVCde5ViqpElACSkAJKAGnJKDKhFNeFhVKCSgBJaAElIDrENDVHK5zrVRSJaAESkggLWk/0pP2IDM1BlmZybIawgOePqHwCagO35D65n0Jq3S57GmJe4TBXmQIg+ysVGHgCS9fYRBYE77B9eHhHexyfSqJwBJdA2nxu5CevA+ZJ48hOzMV7h7e8PQNEwa1chl4BZSkSs1bBAF1wCwCih5SAkrAdQlYsjOQcGQ5Evb9Cm+fYARUqQ2/4Jrw9A5kFCakpx5DasJBJMfvhodPOMIbXG0GFNft8emS52SlIeHQIiQcWABf/wgEhHDQrAkv7wDkyFLTdFEsUhMOCIM98PKvifCGV4uCVfP0ilz4SHZmCuIP/I6kQ0vgF1j9FIPq8BTFIUe+I+kpMUhJ2C8M9gmbBghrcCW8/aJcuMflK7oqE+XLX1tXAkrAhgTiZfBMPbYeQWF14B9cS5665YmTcfn4kidUkyT4kmymbT5npB5H4vGtyMz2QGi9fvAN+i+mQm5mV/vXghN7fpYn8b8REh4Nv6AacPfyOyuD9JRjSDy2Bdlu/girdwW8xWrjysmSkyUM5iAjcTtCIhoJg+pw8/QpmoGbfA9kOSwVi4SYv2HxCjMMvPxyA4O5MgdHy67KhKOJa3tKQAnYhUDM1mlwz05ERP2LIbbs4rchA0pWehIO75wvCsUgBEZ1KH5ZZ8opCtORvz+At5cbwmp3KTGDjNRYHN29GOGNh8I/tKkz9azYslCROPzn2/APDEWV6m1FUcgqdlnI9yAt6RCO7V+NqOa3yxRI7eKX1ZxQZUK/BEpACbg8gcN/vIXAkAgEhTeRvpyyQJSoV25i+k7H8QOr4RvWAcE1LipR6fLObMnJwKFNk1AlMhoBofVzn8JLKpRYbLIzT+LYvhUIrN5dlKrzSlpDuebPzkgEvwfhNVrBL0QUAUtOyeUximUiYvauQJV6A+Af1qLkdVTSErqao5JeeO22EqgoBGiRMIpERDPpUmkUCZKwGKe8yNoXyBz7QqQc/8Ol8Bz95xOERjUSRaJB6RQJg0A29fL0RVTdrojf+xPSEna6EAMLYrZ+isja7UuvSBgGOca3pmr9ixC78xtxWj3qQgzKV1RVJsqXv7auBJRAGQjEH1gIt+yEXIuEJbsMNeUWdXP3RI1GvZGw/xdYxFLhCil257fwlnV5/iGy34YNGLh7+KB6w544sesb6X4pnu7LAVrM1s/gHxAiTqRVhUHZZfbw9Ec1USiO//tZOfTGNZtUZcI1r5tKrQQqPQGa9ulsGVm/m7AorUWiMEaLTJ17iuNeAxzbMavwSaf7TNN+ujgahtU+36YMaKEICK6G4ztztyJ3uo7nEygj5RCyTx5GSPV2NmXg5RsCX79AxMmqIE3nJqDKxLkZaQ4loASckEDi4RUICq1VMkfDYvYjIDRaVgPscnozd8LhZQitJvP6stTR1imkamukxW1BVkaCrau2aX2JwiCidmfbMxCH1rBanZF6fJPxp7Gp0BWwMlUmKuBF1S4pgcpAIF6eGP0lfoK9Uli1VkiJ/cte1duk3mQZSH38wm1S1+mVWGR5aQOxfOw5/ZQTHUmL+1v8HPztJpF/YLgJdmW3BipIxapMVJALqd1QApWJQHrSAQlIFSRxJCQQlT2SzLv7S7CrDIkc6awpNW6bKBJhcGcMBXskw6AOUk9ssUftNqkz+dgm+AZEmaieNqmwcCXCIKBKHSTHrC98Rj8XIqDKRCEg+lEJKAHnJ5CevFdu8mKVMMGo7CWvGyyZ8faqvMz1nozfmsvAZv4ip4vkLv4jmSn7Tj/hJEe46sY/uIZIYyufmdM75uHpJ0HAtp5+Qo8UIKDKRAEc+kEJKAFXIJAhIbH9JMKlfZUJqT77pNPioHXGN8i+DNzcPZCVFuu0DNISd8M3sJpd5fPw8pV9PfbbtY2KULkqExXhKmoflEAlI5Atm3aZvTbs+ERKpAy87awpS1Zy5DKwp4TustIyy54NlKnuzPQEuDNkuj2TbIzmKsuE7YnhXHWrMnEuQnpeCSgBpyPA3T/tbZVgpy1OHGfBUQxsEbfBXl8gN+6xYteprtxvgcUGsSvsxcBZ6lVlwlmuhMqhBJRAsQl4+lQxu3+K512xy5Qqo5tXqYo5ohA3o8qQLbXtaT+xSBAsd+8gR3SnVG14yxRH5kn7TsNwF1pPX3utmClVt52ykCoTTnlZVCgloATORsA7oJrZRjx398+z5SzbOTcP+y05LJtkEJ+RerkM7KhQWXKy4eUbWVZR7Vbev0pjnEw6IvXbT6nMlu3cfYPq2a0PFaViVSYqypXUfiiBSkTAN7g+kuP3SI/t58WfI0+kbt6hTkvVL6y5MNhtVwbZmanwcuKBNDCynShUXL5rv+9BRlqCbP7W0mm/B84imCoTznIlVA4loASKTYDTHB4+YRKh8nixy5Qoo6xiiI/5GwHhzjuIePvLPhRiOcnKSC5R14qdWZaFJsT+i8CINsUu4uiMPkF1kC1bceTklGDL+ZIIKQyotAZFynbmms5KQJWJs+LRk0pACTgrgfAGVyPxuKz/t4OZPzsjBUmxu2QLaudVJnhdQuv0RfIJ2d1Tts62dcqSJ/LUxBh4B9S0ddU2rS+w6oVIjRfrhB0YZKbGIjMjE+5egTaVuSJWZvtvYEWkpH1SAkrA6QhwqiMz20O2peCTuQ3nzGVQSojZgrDoAWZbcqfreD6B/GWqIyUpFjmZto6H4YYThzcgPHqQ2fgsX5NO9zYwqgPiju2ww/JNC44fWI2w+leIvqpD5bkuvBI6FyE9rwSUgNMSCK3bF4d2zJeNmGy00ZUMGmlJh5CRmYOgql2ctt9WwbjDaWi9fji88zdZIVn2rbdNvbLsln4Ibl6RCHDiKQ4rAw+vAITWvRxHdy+2Hir7X5nmSordAe+QZvATJ09N5yagysS5GWkOJaAEnJSAr6xoCK030DxBcuVBmSwUokikp8QgZv86RDS63kl7fLpY/qHNEFi9G04cXFf2mAvC4GTifsQe2YLwBlee3piTHgmMbC8DfwvEHd5Ydgll2ixFpo4SThxAmChqmopHQJWJ4nHSXEpACTgpgcCojvAJa4dD2+dJfKVSOuKdskjE7FuNWu3Hgg6erpRCanaDm18dHN71m4hdypUNtEiIs2Hs4b9Rq8NjsoGY8y6LLerahNXvj2z3YMTsXVp6/wljkdgujqf75HvwkEzxOG+ckaIYlOcxN4uk8hRA21YCSkAJ2IJA8rENSDzwG6pENpIdP+vlVnku078MHjnibJlw7B+kZ2SJRWKwyykS+dklHl6O5CPLEFpVzPMhdUWvEGvNuW7xMlWSnZ6I+KObkWXxRmSjIeJw6FqKRH4G8ft/w8nYDcKgJXzN/i0SDvysDMTfRr4HWSfjEHf0T1g8QhHZeLAqEvmhFuO9KhPFgKRZlIAScA0Cluw0HNs+S7YO342w6q3hH1L7jILnZGeKo+VmJMbuFCe7gQiq1lny2tCR84wt2/dEjuxbErNtBrLTYhBevZ0EXKouDRb1zOgGBmSKlwE0OW6fmdpxBR+J4tDLzojH0X8+A7KTEV6zA3wCIopWKGRKIzsjFSeObJKVK0cQ1XS4+Eg0Kk4TmqcQAVUmCgHRj0pACbg+gYyUI0g+vgmZ3O0xK1EeTDPg7+eP1NQU8xQKN19xMAw2Sz85gLp7eLt+pwv1ID35AJKPbURW6mFYspJkMM1AYGAgkpISc5+63YWBZ4g4WbY2L7PXR6E6XP1jWuIeYbAB2SdjxEgjq34smQgODkZCQvwpBv7yPQhBoMSRCAhv5erdLVf5VZkoV/zauBJQAo4icPvIOzHlg/cc1ZxTtnP+BV2xcsUyp5TNUUJFVa2OmKOHHdVcpWlHHTArzaXWjiqByk3AQ+928PRw/Wmcsn6LlUFZCRZdXn9eRXPRo0pACSgBJaAElEAxCagyUUxQmk0JKAEloASUgBIomoAqE0Vz0aNKQAkoASWgBJRAMQmoMlFMUJpNCSgBJaAElIASKJqAKhNFc9GjSkAJKAEloASUQDEJqDJRTFCaTQkoASWgBJSAEiiagCoTRXPRo0pACSgBJaAElEAxCagyUUxQmk0JKAEloASUgBIomoAqE0Vz0aNKQAkoASWgBJRAMQmoMlFMUJpNCSgBJaAElIASKJqAKhNFc9GjSkAJKAEloASUQDEJqDJRTFCaTQkoASWgBJSAEiiagGfRh/WoElACSqBiEbBYLLL1dAIyMjIqVseK2Rs3NzdkZmaa/pNDZUz8DiQny1bkmmxOQJUJmyPVCpWAEnBGAhdccAEGDhwIDqqVNW3duhX9+vVDVlZWZUWAtm3bVtq+27PjbqKpWezZgNatBJSAElACzkGgW7duWLx4sXMIU45ScNirzEqlPdCrz4Q9qGqdSkAJKAEnJJCTk+OEUjleJFUkbM9clQnbM9UalYASUAJKQAlUKgKqTFSqy62dVQJKQAkoASVgewKqTNieqdaoBJSAElACSqBSEVBlolJdbu2sElACSkAJKAHbE1BlwvZMtUYloASUgBJQApWKgMaZKMfLnRa7ASn7f0ZWyiEgIwnIyZT/k+DmGViOUlW+pi1ZqXD3CgDc5efgHQQP/2oIqNkLflFdKh8M7bESUAJKoBQEVJkoBbSyFslOi8WhRUPhCS9ENbsfHlXDpEoN91FWrrYqT4Xu2J+v41haDGpcOhOe/tVtVbXWowQcTmD27Nm46qqrTms3JiYG/v7+CAzUh5fT4OiBEhPweFZSiUtpgVITSNj+KeI2voCoBreiSv0hcHf3krpUkSg1UDsUdPPwRWD1HvAPborjm8YjOzMevpHn2aElrVIJ2J9As2bNTIAmRr1cuXIlvLy8MGDAAGzevBk33nij/QXQFioFAY2A6cDLHP/vVGQcXo6o5g8D2Scd2LI2VWoCHj44/u9kuAXVRnjbx0tdjRZUAuVJYPTo0Zg0aVIBETT4cQEc+qGMBNQBs4wAi1s8ef8cZB5aJtMaY1SRKC40Z8iXnY6IxncDyUeQtHuWM0ikMiiBEhMobID+4IMPSlyHFlACZyOgysTZ6NjoXFbqYcSsGI3IlmONk6WNqtVqHEUgJwPhje/AsTWPIjNxl6Na1XaUgM0IVKlSBXfeeaepLyQkBH379rVZ3VqREiABneZwwPcgdtOLCA5uAy8/OvKpf4QDkNuhCTfxnUhA7KEfEdXldTvUr1UqAfsSoM+En58fRowYgSlTpti3Ma290hFw2GqOzMxMA5fOP5UtpR38HeFRPaXbqki47rW3wMMrGDmJu123C6WQPDk5GfT637t3LxISEsz78PBw6Hx7KWCWcxF3d3eMGjUK/fv3x9dff13O0mjzpSGQnZ0NbtZG61KNGjVQq1YtRERElKYqm5exq2Xi8OHD+Pnnn3HgwAF4enrC29sbvDk1btzYfKGDg4Nt3iFnqzB53xxk7PsVYQ1GiGiqTDjb9SmpPAn7f4BbRAsER19X0qIul3/69OlITU3FeeedZ25Y/P3yZubh4eFyfVGBcwlQodCdQ13720BFntcwPT3drMhZu3Yt7r77blSrVq1cO2YXZSI+Ph4//vij6Wz37t0RHR1tliYRAl9bt27FwoULTec5d8e1zhU1HVo4FOE1BsAnuGFF7WKl6ldGyn7E7PoItXr9UGH7feLECUybNg1dunRBx44dQauiWiIq7OXWjrkwAVr6qfDPnDkTbdq0wfnnn19uvbG5MnH06FF8+eWXGDZsmLFEnK1ntFJ89NFHuPfeexEQIBEIK2DaNasJoi+aKUYJtUpUiMvr5o4dv1+OhkOPVIjuFO4ELQ8TJkzAHXfcYYIZqRJRmJB+VgLOR8DNzQ0LFiwwVsM+ffqUi4A2Xc0RFxeHqVOnYvjw4edUJNhbRl675ZZbzPrnkycrZtyFrPQTgGfFn84pl29veTQqoc7NNS2Ptu3cJk2nb731lvn98repioSdgWv1SsBGBPhb7dmzJ/gwf/z4cRvVWrJqbKpMMGzrAw88YCKsFVcM3rRuu+02/Pbbb8Ut4lL53NRPwqWu17mFpYWpYlqZtm/fjk6dOiEyMlIViXN/ETSHEnAqAlytc8UVV+CFF14oF7lspkywI6WdqmC5Xbt0/X65fAO0USVwisDixYvRtGlTddDTb4QScFECQUFB6NGjB7Zt2+bwHthMmWCc99q1a5fqiYYexixbHgAcTlwbVAJOSIAPAzSPVmRnaCfEriIpAZsSoLP0xRdfXC4P5zZTJrhCo7Q3Is73cJkozayalIAScDwBKvJNmjQp1cOA46XVFpWAEjgTATpjcoWHo5PNlAnOs9LCUNrEtesMhqNJCSgBxxOg8zQD4WhSAkrAtQlQmcjIyHB4J0o/+hcStXnz5jhypHTL5dh5Phlxq1xNSkAJOJ4Apzn40qQElIDrE2BAK0cnmykT1atXByNeliY6Hm9iVCj0ycjRl1/bUwK5BBj8hhEuNSkBJeD6BHx9fR3eCZspE5Sc4TzXr19vQmcXtyc+Pj5YtWoVOnfuXNwimk8JKAEloASUgBJwIgI2VSYYeWvlypUmXHZxLBT0sVixYoVxvGQoUE1KQAkoASWgBJSA6xGwqTLB7t9///1m85FvvvnGOGQWpVTwGKPtcSMhhtS+6667XI+cSqwElIASUAJKQAkYAjbfgpy7g95www1Yt26dCa1dt25d0J+C0xlMDJt98OBBs5PoZZddpk6Xhor+owSUgBJQAkrAdQnYXJmwouBug+3atTPKA3cRpXJBnwoqFy1atICfn1+ZlpJa29G/SkAJKAEloASUQPkSsJsywW5xOoN7b/AVGxuL+vXrm+BU5dtlbV0JKAEloASUgBKwJQGb+0ycSTj6SPClSQkoASWgBJSAEqhYBOxqmciPinEkyhIhM39d+t52BA4eicGx2DhzbVq3aIKdu/YhKSXF7PzaonkjIDsHaWnpWLRiHTIys9ClfUuTNyKsCvYdOILY+ASJEWKVR/ZIldDo9evUhK+PN7bu2CMnuMOmG/z9fNG4YT2+NXXKv5qUgBJQAkqgghAotjLBVRcHDhwwwaVK03c6XWZnZ5spj9KUZxn6W5RHMI7Syuv05WTAj+48UJSETCPqnGkTceWtDyFTlAamvxd9haqR4Yhs2UOUBHPI/NOrWxfMm/EWWvcYjISk5P9OnHr33cevYcNfW/Hc61MKnAvw98P6X6ajSYO6BY7rByWgBJSAEnBtAsVWJrgbGR0pS2tdSJGn3aSkJKNQlBYZlRFNNiSQkYnXxz2Aex5/GdPffh59Lr0AG3/9HC0vuR6P3jMCzVs1Rdc+w1CjahQ+mfQswqoEY+DNDyIuPhFuEiPky/cnoM8N92LC4/fgwk5tjTWi0+XDjDIydtRw/LJwJZJTT+INaSMuIRFjnn4N9z75Cn79+gNIJht2RKtSAkpACSiB8iRQbGUiNDQUXbp0KbWsDNdLB8wqVaqUug4taGMCYm6oXaOqqbRTuxbwEAWhRed25nPDerXM34jwKvhn+y5RKCLQQI7NnvoKNv29TWYvLGjVrKHJ07FNc/zv3Wm4oGMb3HHT1TivbQv4i+IRKWU9PNxxsdTpLn8nTpmJxMQUmerImxcx5fUfJaAElIAScG0CxVYmXLubKn2pCGRlY8qrT6D3kHvQovt18JIYIu1aNcGk8Q8VqK7n9Xebz1UjwvHBlJchThd559f9sQWtLxuCozGxSBErxfwv31GrRB4dfaMElIASqBgEHLaao2Lgqni9sBoJCk8hcRqD1ofUk+nYMH8G9q+bi9eeHYM9+w9jxP3PFrAuvPvyY+h+fnuZBgnBP2v/wCZRIGQ+zMAKDgo059zc3cTfxQdNG4q/RH4HjIqHVHukBJSAEqh0BFSZqHSXvGCHa1aLMgc+nPk9EBiAr6Z9Yz5H16mBBPFz6NB7KK4UP4la9WvhXvGD6HPJ+dh74LBRJrw9vUzeerWq44v3XsJTY27F06++hydeFutDcJAsBMlB4+g6eP+t8di84Eskp6Si/01jIEs7CigjBSXST0pACSgBJeBqBHSaw9WumI3lbS+Ok0MG9Rafh8/Mi9V36dDK+D+cTE+Ht/i6/PjrEriFt85rmc6ZOTIFUq/zFebY5UPvyzvHN30vvRATn5+EnxesMMfdQlsic/9qbBILR9ueN8BdPidtXwKu7tCkBJyJAJew01k8Xb77fM9XQECA2Z7dGisnMTGxSJGDgoKMkzlP0keMwfpYT2pqqskfHBxsHNBZvzVxKbW1fh6jgzsd1enszpVr/v7+pq6MjIw8maxl+ZfbFDCa8JkS66e8/BsWFmZi/fA92+BfysS6uc0BE/tLvzae4yshIcH8DQ8Pz/tMDtw2gf1LS0szL5al7CEhISaftS5aPOPi4kwe9pOBDNkmVweyXbaXP7HP3t7eRmbrcZYhW03OTUCVCRtdn3379qFOnTo2qs2B1ZxMw4x3XsCTo2/Fqg2b0bJJA7Rp0RjesmzUy8sTy3/4UIRxw1//7DDLQDu2aYZG9evIjcMNf/w2E+myIqRgsiBILBwhQQHo1e18OWUxN0M6d7ZpKXEsVn4vRyxyA/QtWEw/OYTA8ePHERER4ZC2XLERDnI33XSTLDbKRFZWlhkgOfg99NBD6NSpEz788EPMmjXLfKd5nomDKAfewYMH46uvvjIDJAfF7777DjfffDNiYmKMEnHbbbdh586dWLBggRmMWZbt1KtXD59++qkZXKdMmYLvv//eKBNUJDgA0/GduzEzr1WhYVmmK664Avfdd5+RNfdIwX+XLl2KV155xQzmM2fORFRUlFEQbr/9dqNQjB8/HtOmTcOOHTvMQM/S7B/lnzdvHiZNmmT69sQTT6BWrVpgHygTlSXmGzVqFI4cOWIYUKn5/PPPzTnWQ2WBsu3atcsoVORIxeCpp57CM888Y95T2SA7axo+fLgJQfD7778bRuwzlQtuxfDmm28axSl/fms5/Vv+BHSaw0bXgJo6f2xz5szJ09RtVLVDqmneOBq33HgVOklQKh9vmb6QHzifGhiAqr5MeQzo2x03Db4CzRrVlx+5h5GJqzuaN65f6BVtVojQVyL3XLQoH7Vzn0Ckzui6NdGgbi24F3oicUgntRGjSPTv3x/PPfccDh06pEQKEeCAx40KGReHisBVV11lBs877rjD8Bo4cCDatGljrBfc7ZiDHwd7Pn1fcsklaNCgAU6cOIEHH3zQ1HznnXcaJYCDOM9feeWVZkCOjIw0A+PIkSPxwAMPGGVj9erVoDLRoUMHvPrqq7j66qvNNgS0IrAtKjpsiwP6iBEjzAButXoU6kbex86dOxvFgPleeukl8/7XX381AzYVhiZNmpj6uF8StzygRWTJkiWmfNeuXXHppZeadikPN2xku7SsXHjhhUYZoFwNGzY0fT569Cj+/PNPU5YWEzKg8sQyr732GljfsWPHzL2A5Wj1uPjii3HrrbfixhtvNAoR+8j3rJPKyN13343u3bub68F8VGI0OScBVSZsdF1q1KhhtHA+KbRq1Qrcgj03FTTj2ag5+1TDJ618TwkFGpFImJCpDU2007jQNS3igvGJkk+GHLTuvfdek6O08WOKqN6lD/HJn4MeBzJaGjhwv/3222Zwe+GFF1C7dm2cd9555mn58ssvx4wZM3DRRReZZe+NGjUCn/Q5cFutCFQiOEjfc8894FQB87Be1sNztII0bdrUDJK0TnCQfv75543SwAGXAynL9OvXz+Tp1q2bmQL4559/0L59e3BDRcp8psQl/Xwx/fHHH9izZ4+xNvB6c+qACgXr4fELLrjATIVQ2eB5TnewfVoP2AdaMKjg8MGJAQSZWObff/9F3759jXI0d+5cIyeP0Sry+uuvY+jQoaBS8/DDDxvFonnz5qY/bIM7R9MqQsW2cePGaN26tWHTsmVLo8SRFa0iLH/48OEzWmCMMPpPuRJwqWmOqVOnOu3TFE1v/FHTjMcfxzXXXIMmzVpj+qiEcr3A2rjtCTBi6LjnX4WnW4btK3dQjW3btsWmTZvMQMnBcty4ceYp0UHNO3UzVjM6//LFATc6OtoMmtZVT7QW9OrVy1ghqRRwSoNKBAdoDrCTJ09G7969DV9Of1IJsFoRCtdv/bxq1So8/fTTZvDmMU6j0JrA+wo/82mfUwR8zzY5cDMPFZ8zJWvdtGisWbMGjzzyiKmnvsT8sfpJbN261VgMaJGhgsRBn34WVv8HDvqPPvqoUUA5yOf3c+D0C/vF/vEhihavxx57DLt37zZKDK0ZlJFTHVSwevbsadq1+npw+ohMqVBxisSqhLE/tFxYrRt79+41D2u8v55NeToTBz1ufwIupUzQpOisXyT+4P766y/zY+Jl4491xozPEbS5u/2vorbgUAL0JXnssYdhyUp3aLu2aowDzNdff51X3ZNPPmkUCWf9beUJWk5vyIuOlHwi5++cn6lg0KpDfwQe+/nnn42Fgu85YE6cOBG//PILFi5caEz8dFQ8V6IvAvPlH6ytn9k2B9pBgwaZgZp+GHyap79Cs2bNjExnq5+D+rXXXosvv/zSTG3QskAlgoMzpzU4oL/11lumbQ709E+glYWJ7XK6h5aJCRMmGBY8zr7S/4OJShATpyHef//9PIsJWVGR4DQRlQr27fzzzwetPFSCrrvuOlCJYjnm4xQKp16Y+H2kUkN/tJo1axoLB2XR5JwEXEqZcPb5MpoiaSK9//77jWWCl3z7Zue88CpV2Qh4e0h5D5+yVVJOpX/44Qczt82nPj5F0vzOJ0zrk2o5ieUUzXKw432Gg6BVieD0wIYNG8yAygGUeTi480mezqwcfPnET2sEpx041UnzPqcraEGgj4VVUWPdfG+tn39ZnoO5dcCmZYMmfx6bPXu2efLngxQ/cxrg+uuvNwMxB/x169YZPy3WU1SyKiZUSsaMGQM+4dOPg0oFz9G5kVM1vG+xbg74fCjiVAetBjzPuvn32WefNdMUlJccqIj89NNPxq+C8rJfy5cvN4rVCPGToP8FFSrK/tFHH2Hjxo2GCy02rINttWvXDn369DHKGa1jlJOyMXF6hj4ka9euNfdUTjnxMzlocj4CLqVMOB++/yRatGiR8W7mj7I8UpE3E7lZcHbfes56Y7F+PpeczH+mvGc6Z22DdZ+pLM8VLp+/HM9bU04Ob5K5zqA8VricNZ/1XP7P+v50ArwR09GPT4UcDKzpbNfKmqcy/KVCRQdAKljW3zIHTjpXjx07Fu+99x7eeecdM7jS14CJ30kqCdZBjqsaOJh+8MEHxuJDZ0sOnMzDp306abMMXxxMqYAwL50xly1bhiFDhuQtn+R14RQCHRU50HJAt14rlqeyYlVUiro+9I+hBYIvDsoc3Om/QWsArz+nP9i/xYsXmykOysppLw725EALCFeV0JrwxRdfGGfJzz77zFhEKBPb5soLKkK03lChoqLFgZ8WL1po2DdaXWhlsPabviHsB5Uwa38oBx1Baf3gyhMqMJx2oRWNUy9UzmiZIT+2pcm5CKgyYaPr0V0clcotyU3qhtsexl9bd8hKjNwniSwZNK4f0AsDel2EG+95Wm4O3rKZ13Oy/4YHrr/zMSOquVFJ5MpFK9abGyFvdply0+NKi0YSbOoOWd3x0HMTzc2Gx2VMlxuQO6rLPh1zp7+JXoNHyQZeSeZGyQq5w+htQwfh2it6Yu/+Qxhy9xMyaGXm7kpKnUA0G95MuOvoJRd0xCMSi4LyZotz54evP4UOsqeH3J2YiZqIyP0Ulq7eiEQJz91ZVpnwZv3ovSPw4LiJZh+RAjJFiUyykynLaTo7AZqYNRVNgAMYLYv0A+B3lQMulyXSWZXHOIBycOXAlz/xt1SvXj1ziIoanQ6Zj/cFq5LBv7Re8inemjgY15cpUSobzM+Bd/369Wbw5wDM1SGsg/4RnAKgTPnT2WJMMB+VldGjR5sifNJnO1RWaP1gH/jiMf6lYySVCA7wbIcOmGyT/eFxxpUYNmyY4UEfB/qCWKd/OG3CvtCawbJsiz4lPE4fMjpPUlEhR07L0CrGegv3h7EwOCVDh3ayp98G83AFEqc4yIjyanI+Am7yI3DI3ZcmLv5oKttGX9unR6BRn1Uy8WhHR0xZqjlj1k9YsmoDZn73i2ywFYrLLuqEwQN7g3Eheg6+G6vWb5almtFmV9AnJULlqxKk6ubBAyRORAbmL16FHhd1xhdSdkDvbjhw6CiSklOwas4nuGDALTgSE4ur+/cwe3NsFoVlx+79OPLXfDz50mS8MOkjXN7jQkRJm3N/X44TcQnYuep7IwMVkXc//Rq3DBlolBB+/b/5aYHZ+OudCY/i4fGTMHvuQpyUJ66u57XBUolbIRt4mCeVBl0G4uDRY3hg5FAJphmA8W9MlXzp2Lt2jlFi8sv0t8i0TWQ6KjLZXZnwCsLWH1qg6S0Va+52xYoV5smXT6AOuiU4393QiSTi4M7rUFGuRUXrjxN9VU4ThUodp584HebIVFC9dmTL2pbtCMiSzRuu7Yf3PngZDI99vkSwfG/SOHS/6DwESryHa/pdZtrasm0Xxk+cilfeHGc+337DINH2s9CwXm289kzu08vTY24Ty8JlJhhVmFgnLu7SHjWrR+FDCWwVL+G1X3nyPmOZYAX33TrE1PPk/bfgk09ex5bFs0wI7X0Hj8BfAlf97+ncOj+UnUZrVo3EsGv6yT4dHdBetjavXqcGxj10h1EkqGwskz09/v3zH1PfwuXrsFssG7OkPxNkP5DHJN8fv3+BiLAqqNO80WkyvSwycVdTTUqgohDggFBRFAlek4rWn4ryPbNlP3Saw5Y0y7MuxoBIzzA3IO6JwffywUwZcMojNCQYTWSTrTc+mIGxsscGE60SI2Uqg0GqOJXAxJ09GV6bCobs8mWUAyohkQ264viJeEx78zlsXP6tOWemGaTM5I9n4aMvfsQnX/4oUx1haNKgrpmusEbHrCVlDx45hrj4JHwz611TVuyqZh+PoEB/TH7hEXwz53e89v50fPDKE9j8704jC60rMkdi3nPa5diu5UBy6mkyfSrKkVUmk1n/UQJKQAkoAYcSUMuEQ3GXZ2MWfP/xa2b+9prbxxpBqGtcJvtoXCTWAiocTDlysG7tGrhmYE9IZnOMisiNV/fNO79987+5fg3mCLBszSZ8LcoA54TvHn4toqpFnjqT+2fE9VcgWCwVHoycKVMV4piBeJnCmPHtPDMvesHAW5Aijm+/Llpl/Cus86ieMmealyhsPqer/DJZxEmzsEx55fSNElACSkAJ2J2Aw5QJDhCcN9NkJwIS+4CWCP7H/80/p3hzHw2Oxd5igfjuo9fwy6KVuULQl4tWDOYzZViFvJFrJY//8leWwUmWqIhQvDHuAUyeMBa+/r5o3PUqCbGbmucH8fnk5xG/Y4lxknx+4ofYvn03xKVbqmVpYPwjd+GjN57GA3fckGtpECWBG4vx+9CuRROESghjWiG4G+maDX/LJmO5m4p99aP4QFChELmTxJfic/ELsYjz1eky+Z2SSawrlF2TElACSkAJOJSAw6Y5tm3bZmK8W5dbObSXFb0xWYVx9fDR2PT3NuwX58mDh4+hYZdBGHr15WZK491Pv0GiOFQ2vehqccCcIU6ZzbHujy25CoSfD4YOf0BWdKwzlIaOetJMcSz5bip+nLsAX37/K9LFizpaHCJpKXj9/c9NvvjEJFw7MtfCMUi2KH/s3pux6qdpiGrZA536DjcrQX6cv9TkbXi++GaIEvCn+D3I+jhM/WQWXpk8zZyrU7MaPnn3BfS66g7zue9N92Pqa0/iJvGvuOnep0HlJET8PvYfPorDR4+b1Shf/jDfTNEUlilRFJxAsYBoUgJKQAkoAccScIgywUAmDGDCTV+4moMhWTXZkoDF7PTJ1Q7NG0XnViwP6PRd4FLOizq1NZtu+cqyNz9RHn79YjKuGDbarLjgfhttWzaWJZ6J4hjZTKY5ctCiSW4d1aPC0V2WcBZOdWtVh7/U01asChGhVYxzFX0aIAaOZd9/iDHPvIaWTRtgz4FDiBZHSzEXiFXE0yxPRU62OXbZxZ2N5YJt0wrSKLq2GCA8aQxBNVliOm3Ky8aRdM5vy8TXIgHdxBF03EN3istEqnHiLEomP1/vwof1sxJQAkpACTiAgN2XhnKDGK6R5oY2TAy1ytCqlSU5ZGkoYdK8X9jCz6kL67SF9ZwJAiXHObXBKQ6mwmWt5Xju1FQF3/6XpDKWzV+ucBl+trZpLWhtu6hyZzomZbNF4TH+FuwL09lkys1hv391aaj92GrNSkAJlJlAhVwayohn3LyFYWetiQFTuB0to7lpsiEBDrQcrPO/rINv/nPWJq2KBD/nP8/y1nI8l7++vPenlJD85QqXyX/OWo71MeU/Zy13pmNynNaVYsuU24L+qwSUgBJQAg4kIHdp+yRGK2No1VGjRslg8J9XfrA42zE2PGO1a1ICSkAJKAEloARcn4DdlImPP/7Y7FKXX5Gw4mKYWG5+wxjvmpSAElACSkAJKAHXJmAXZYI73XFv+4YNG56RDjd6qVq1KtasWXPGPHpCCSgBJaAElIAScH4CNlcmuAcHLQ+M8X+uxI1guAnM9u3bz5VVzysBJaAElIASUAJOSsCmygSXfs6bNw/cr764ic6Z3G6WW91qUgJKQAkoASWgBFyPgM2UCW5Fy33muX1tSdMDDzyATz/9tKTFNL8SUAJKQAkoASXgBARspkxwuefQoUMLrNwobv8CAwONs+akSZOKW0TzKQElYEMC1v1QbFilVqUElEAlImATZWLatGkYOXIkIiJKvw10vXr10L9/f/zwww+VCL92VQk4BwHGhElKSnIOYVQKJaAESk2A+yudOHGi1OVLW7DMysS3336LOnXqlEmRsArfoEEDpEq45AULFlgP6V8loAQcQCAyMlLCnfs4oCVtQgkoAXsSoJUxKirKnk0UWXeZlIlVq1bJngve6N69e5GVl+bg4MGDceTIEezbt680xbWMElACpSBQo0YN85vT6Y5SwNMiSsCJCNAywXHZ0anUysSxY8fw559/ol+/fjaX+brrrsNXX32lZlebk9UKlUDRBKpVq4ajR48iS3Z31aQElIBrEnCXPZcOHjzoOpaJhIQEWP0k7IHc09MTDz30kAm5zU1LNCkBJWB/Al26dAF9JzQpASXgmgQ4Vfn111+jWbNmDu9AiS0THNwZKpv7a9g7XXXVVXjnnXfs3Yz96y+8e6b9W9QW7Eag4l5MKhO0CFKZ16QElIDrEVi4cCHatm0L7oHl6FQiZYJzMa+88goGDBhgolzaW9jatWvj4osvdu0YFB7i1JaTaW9UWr+jCFgy4cZrWgFTUFAQOnfujFmzZsnu8hVXaaqAl067pATAB/1///3XrIosDxwlUiYWLVqEnj17Ijo62mGytm7d2uzhsX79eoe1acuGfIIbIjv1oC2r1LrKkUDOyRj4BDcqRwns2zTD4NMZk0u0eXPiHKwmJaAEnJcAnS25JQVnDG666aZyE7TYdwqu3Dh06BA6dOjgcGH79OmD1atXu+QeHgG1LkfqiY0OZ6YN2odAWsI/CKhte6dj+0hbulovueQSs1EfrZD79+83ldAqqUkJKAHnIcDfJCNPf/nll1i+fDnuvfdeMABkeSU3EahYd4mUlBSHTG2cDURaWhp8fX3PlsXpzuVkJuPILwNRo8MrTiebClRyAjF//w/hXd+Ch2/pA7SVvNXyKcHfG5V4eocz/ktmpk7Xlc+V0FaVQEECtBhyLKxSpQpatmwJxmgq71RsTyvuBFreydUUCfJy9wqEe1AdWLLTK+xce3l/LxzZfo6HR6VQJMiUv7du3bo5Eq+2pQSUgIsSKPY0h4v2zynEDmxwPU7s/Qrw8HMKeVSIUhAQp8s4uYZ+tXqVorAWUQLlQ+D222/H9OnTy6dxbbVSEVBlwgGXO7BWH6Qk/IXUmKXSmnrJOwC5jZtwQ5r4vSTGLEFIo2E2rlurUwL2I0DHdY0mbD++WvN/BFSZ+I+FXd/V7jMPsftmISvtqOgTxZ5dsqtMWnkxCLh5IDszAUe3v4fafX8vRgHNogSUgBKofARUmXDQNXdz90LNHrOwd91opMQsozOFtKxWCgfhL10z7t44Gbsee1aNRK0e38Dd07909WgpJaAElEAFJ6DKhAMvsLtPKKKv+gPplmTsXTYcOVmy5bO7BEBy08vgwMtw9qYYrEmUCEtOFvatuA0pJ3ej/lWb4OFf7ezl9KwSUAJKoBITKJG9PTs7G1OmTMHu3bvNMrFrrrkGS5YsQWxsLDzEy33kyJEODWjlitfNzcMXYW3GIrDelTi07jF4eQTA26c6vPyqmSdfi0TLpBXD1RIXGHONsbsLGluoOLi5eyIn+ySyTh5FetphZGTEomq3KfAJa+1ql0LlVQJKQAk4nECJlAmubY2Pj8e8efPAOP4Mv8ugGWvXroWfn595ObwHLtqgd0hjYzrPyUqVp+AMZCZuR1ZqjCwhPSkDm+O3jy0rxti4JMTGJaBxdK2yVuXw8kaBk9Uann6R8AtujGB5r1MaDr8M2qASUAIuTKBEygTj9d9222345JNP8L///c8oE61atcKRI0cQERGB6tWrgzGwXn31VcyZM8dsId6kSRNccMEFuO+++wwmKiK0buzZs8dYMbjd+LXXXmvODR061CgndevWNXsDLF26FF27dsW4cePKNbKXPa9v7qDlD4+I8+zZjN3r7jf8Urneydiwfo3d29IGlIASUAJKwLkIlHiyPiMjw/SA0fGsidMffDEtWLAAH374oVE6XnvtNTDfihUr8s6NGTMGkZGRePHFF1GvXj089dRT+O2338x57hLK7c0XL15sytxxxx34559/jIJhMug/Tklg3bp1WLJ4ITZuWGuunVMKqUIpASWgBJSA3QiUWJmg5YEWivy7CvK9NSp3x44dTYjPqVOnYubMmWYvj2eeecZ04L333oO/v7950ULBMoysSUsG09VXX43w8HCjZFDBuOWWWzB37lxzzGTQf5yOADeDeu655/Lkeuyxx/IUy7yD+kYJKAEloAQqNIESTXOQRFhYmLEU7Nq1y0xt8Njx48fRsGFDvjUx/DmNwQ2C+MT666+/GmsF91nnJiT0u2CcfzpsMnXq1MkoF3yflZVldiqsVatW3jEe1+S8BBITE/Hzzz/nCbhmzRrs3btXHXHziOgbJaAElEDFJ1BiZYKOlpdeeikefPBB9OrVy+wkyj3U33zzTUPr2Wefxd9//41BgwYZZYPblf/555/mHP0m6CPBOpo2bWqmQOg7QcXiwIEDmDx5MmJiYsAB6oknnjAKxcMPPwxusarJOQlcfPHFRgm0Ssfprt69e7vkDq/WPuhfJaAElIASKBmBEisTrP7tt9/GPffcY3wdOMXxzjvvoGbNmqZlq4JBB0xOYwQHB+Orr2RfCklt27bFp59+iqeffhobNmwwVgpaK7h1KleFcJtzT09PMzhxt0L6VtCMrsk5CfAa/fXXX0bp48519KfZvn07duzYgd9//x09evRwTsFVKiWgBJSAErApgWJvQV5Uq1QAfHwk6FIRief4lEofiaIStzRnWSoPmlyPABVFKoFt2rQBV+HQUsVlw1QWZ8yYgUWLFplVO15erhczw/WuhkqsBIom0L59ezAe0OOPP150Bj2qBGxEoEwj+ZkUCcp2tnM87wxbmlMOTaUjQIvUG2+8AauyYF3RwympESNGYPjw4XlOuaVrQUspASWgBJSAqxAo8WoOV+mYyml/AlZFoqiWqGzQ2VaTElACFZeAdRVfxe2h9qy4BPRuX1xSmk8JKAElUIkJbN261cQHyo9gyJAh+T867fu4uDh88cUXTitfRRBMlYmKcBW1D0pACSiBYhLglCRX1tWToIEMHpiZmYm+ffvip59+MiuxJk2aZGri3zp16qB///5mypJBBBmIkMv5ueyfcYO2bNliVuJZm+Yqvs6dO+Pw4cNmm4UBAwaAUZKZt6j09ddfo2fPnkYergJjGjt2LBo1agRGQGaiMz8dvKm4MLAhnfzp6E055s+fj+TkZHOuXbt2OHjwoCkzceJENG7c2OSn9eSKK67AAw88YKIxUynSZHsCqkzYnqnWqASUgBJwWgKcguRgzcGbS/A52HLA5yosKhBUFDZt2mSiEDM+EFdpscywYcPMAP7RRx+Bjp2DBw825Rg3iInbInCpOIMUcsBv1qwZ1q9fj2+++QZ33XVXkcHsLrvsMuzcudOs3Bs9erRZGcg2OfizLpa/9dZb8d1335ltG6h41KhRw4QPoNM3QwncfffdZgUg+9CgQQMjy/jx403/GAOJ8lFpuvzyy/Hxxx+DWzxosj0BVSZsz1RrVAJKQAk4LYFDhw6ZQfXOO++Er6+vsSwwUOCxY8ewceNGsxyfO0PTmToqKspYJrhSi5YMLtWncz2tGElJSSbPtm3bzHFaPBgziBtAWgMQsjwtBHS4P3r06GlMmI8y0GmbikJISIgJeEdLCaPpMnFXalog2A73f2KdPMatFmiV4L5QjFtE5YYKCYPmXXTRRWZLBwZXpLLCeEdUmhiqYPbs2afJoQfKTkCVibIz1BqUgBJQAi5DoGrVqmbrAgYY5JYF3Nrg5ptvNoM1l3RzsL7yyivRvHlzE2SQUxZUBhg3hoM2pyG49J9P+1QeZs2ahW+//dbEE+IUAoMPMvIxgxVy6TjrZzt//PHHaYw+//xzs5njo48+amLWcBkrrR6cpmDwQlobGASRezbRMsIpGVoi2AaVEyo9L730kgmA+O677+YpM4x7RKsL62U/2Cf2m1M1lF2T7QmUKc6E7cXRGl2VwMiRI02cCWuAMlfth8qtBCoSgbLGmeDTPKc4yjtx6oPWClpQ6C+hyfkIlCnOhPN1RyVSAkpACSgBWxFwBkWCfeG0BX06uBWDJuckoMqEc14XlUoJKAEloAROEWCkZOuWDQrFOQmoz4RzXheVSgkoASWgBJSAyxBQZcJlLpUKqgSUgBJQAkrAOQmoMuGc10WlUgJKQAkoASXgMgRUmXCZS6WCKgEloASUgBJwTgKqTDjndVGplIASUAJKQAm4DAFVJlzmUqmgSkAJKAEloASck4AqE855XVQqJaAElIASUAIuQ0CVCZe5VCqoElACSkAJKAHnJKDKhHNeF5VKCSgBJaAElIDLEFBlwmUulQqqBJSAElACSsA5Cagy4ZzXRaVSAkpACSgBJeAyBFSZcJlLpYIqASWgBEpGgHtaaFICjiCgyoQjKGsbSkAJKIEzEMjMzESjRo3MVt/cpdOWr7Vr14LbiGtSAvYmoGqrvQlr/UpACSiBYhAYOnQoevXqhezs7GLkLl4W1nXeeecVL7PmUgJlIKDKRBngaVEloASUgC0IZGVloUuXLhg2bJgtqtM6lIDDCeg0h8ORa4NKQAkoASWgBCoWAVUmKtb11N4oASWgBJSAEnA4AVUmHI5cG1QCSkAJKAElULEIqDJRsa6n9kYJVG4CzrRy4WyyFHVOVnLYLRXVnrWxs52z5nHUX2eSxVF9riDtqANmBbmQ2g07Epj8HvDOB0B6OmSd3ekNNW0C/PTt6cffmwq8+nrB4/TUnzUDOK9DweP81LQNIMsEC6S4eODEoQKH8j5E1ARCQvI+mjdVqwIrFhY8xk+zvwceehSy7vC/c+zL2xOBvr3/O2Z91/FCIC7O+in3b3wCEHuw4DHrp7AaQGgV66fcv76+wN8bCh7jp2UrgJtuAdwLPcs8+Rhw802n5+/ZD9i1u+DxxETg2IGCx/iJ/QsXWaoUkiUnB9i99fT8W/8FevUHvLwKnht5KzD2wYLH+GmwOEiuXVfweEoKsH/H6XVQlshaQHBwwfwnTwKHCvWHOY7GAHXlu+TpUTD/wCuA118ueIyf7hP5fvq54PG0NMOzuREAAEAASURBVODPtcIgvOBxylK9HuDvX/B4YpJw3F/wGD+lyXe9XmMgIKDguQu6AJ99VPAYPz3/EvDxtILH+V1e+AvQILrgcX6qK3UXjoERL9/12DN81yNrC8eggvU0bgT8LN/rwmmKyPfS/woe5e/uy8+Azp0KHuenZvK7yyjB7y5cfndVCv3uIiOAVUtOr/uHn4DRD53+u5sk8l0h3+vCqfNFwPHYgkdL+rvz9gb+2VSwDn6aPhOYOw9o1xa4WH7fRbE4vVSxj6gyUWxUmrFCE0iQgZKDXL/LT+/mdhkotmw8dTzfYGzNyR9vUSlWbgq7thY6IwN4amqhY6c+/su8hW5qkPxnSrzxxh4ueJaDQ1GJ/TODaX75pe4kGZSLStu2y7njhc6cRZY4kSPuSMH87n4FP1s/cfDdI4M48ssiH0+csOYo+HfnLpGd+fOns8hyQmQ5UUiWM3GkgkhFoLAsMcfyN/bf+717i76mRSmZLHVclK/jcp0KpDPILis6sG+b5CzE5VCHAqXzPhyUuov6fmXJwFlUOiKyF677TFwsOaLc7Ds9f01R1IpKR48WLQv5FpX2yferuLKw/HFRHI8X4uJRSOmythMr36OiuKSc4XdHhRIZ1tKn/p7hGvEslXt+x/KnuGr5P/33/ky/u4Qz/e7kuxgvLAuks8hS1O8OPgVK531YuRqYKQofXyaJAn3JpcBdI4Frr8rLVto3bhLQ5CySlrZaLVfZCIwcORLx8mTx1VdfuV7XHxwLvD8VSJGbEBWKC88v2IdDcuPgUxafRvI/2VtzuctNLbDQExzP8UZa+GbKXxvzFnUj5NN24cSfZ2HrgzUPb1SF5XFzB4ICrTn++0v5+URcOPnJgF/4qZx5kkQpKXxrKKksHCwKP02ybg6avLEXGhtAS0ZRillyMkDLQv5UUlnIPaSQhYD18Yk1WZSbwrJ4yw3Zt4ibMhUhlsmfSixLwWvKoFWNGzfGgw88gHtuuVXqFz75E68Pr1PhlCrXM0uua/7EfpJ54e8F8xT1fSmp7B7y/BlQyLrBumkRySg0IFMWfhcLW6CYn4NpYeYllYX1BhbxXU8XOdJFnvyJstDKUtjqwzw2+d1JZ4IKWU5Yd7n87qTdwtYwynJAlKD1G8Sythb4ZQGwbpkc9AbuvQd48zXmKFNSy0SZ8GlhlyWQJAPUW+8AE16VweS4dEMUgm49Tx+02MEa1UvXTR8ZjPgqbirqBnC2smdSMooqwwGpKKWhqLw8VtSN8Ux5ebwkstC8XdTAfqb6ixowzpS3pLJQqSuJLIXN/meTo6SyUAEoaqA+Uxv+VDCKUDLOlL8k16ikslMR5Ku4qSTMSyqLjwyQfBU3VZbfXS2xKvE1sL9MS43LvdfN/12meZqemRQVvKIU0yJKqDJRBBQ9VAkIRNXOfWrgE0t/MfFN/6hkA2IlQKRdVAJKoAIToGWntzxAFZWWrxB/qvdlSuTTos4WeUxq06QEKiGB1UvE8bAPwL8/fqOKRCX8CmiXlYASOAOBUaOBLz4DGrYA1qw7Q6aCh1WZKMhDP1UWAq1bAT98DXRsX1l6rP1UAkpACRSPwLKFQLRMf+zdl7vqg6tSzpFUmTgHID3t4gQ456dJCSgBJaAEik+ATuLbNwPPPS1lxP/k2huAD2Qq+CxJlYmzwNFTFYAAnYf6DgQ2/10BOqNdUAJKQAk4iAB9Kh57GJgkKz0yZGXauvVnbVgdMM+KR0+6NAEuJ+x/pQS2mZO7FHHxfJfujgqvBJSAEnA4gftGAd27AS3Ff+IsSZWJs8DRUy5O4B3xRv5Z5vpqRwPzfsiNm1DMZU4u3nMVXwkoASVgOwKtW56zLp3mOCcizeCSBFavyQ03DAkwNPvL3KA/qki45KVUoZWAqxOoDLEh1TLh6t9Slf90AozEN2KkRN6TgESvvqkrNk4npEeUQKUhMGvWLLzxxhsSrf0EevbsiejoaIwZM0YCdmbgzjvvlCCVmRKUNQuDBg3C9ddfXywus2fPxjfffCPbi3jiwQcfxOTJk5Ei0VGbNm2KJ598ElOmTMGiRYsk+Ke7xHxyw7Rp00y927dvx/jx4yUY7UkjU2hoKO677z4JlJuOyMhICQDrjQMHDkjwWYvEu/PBeeedh+uuuw4RERE4fvw4HnnkESM3K2Pd7777rgT2DJCgrNkYO3YsDh8+bNrJr7wMGDAA1apVwwcffCCBdz1MXrbbrVs3XHPNNaYeU6gk/zCyL7cZyDf1oZaJkgDUvK5BgFENrxwg1giJyHe3KBWalIASqJQEFi5caAZjKgzdu3fH22+/jQckbDmTl0SEPSp7isycORNffPEFbrnllmIzoiIyY8YM/P3330ah2LlzJz7//HPs2bPH1JEoIbo3bdqE6dOn47PPPsPcuXPN8Rzx4/rzzz/x9ddfG8WGgz7LUob169eb8qyXSsGGDRswatQoNG/e3JSlIrBX9ob57rvv8MMPP0gU8MQ8RYDnqISwLNs9duyYqePLL7+U6NlrjcK0ePFicz5ONvCjMkTF6dprrzV1l+gfhpTv2kP29egt+4jI5mzWJJ3RpATKTOD222+3yBezzPXYtILUkzatTitTAvYgIAOTpV69epa33nrLHtVX6jrlad3i6+ubx0AGdYvsg5L3WSwEFlEqLGJR4Bpyyy+//JJ37lxvxDJgkQHaZBMlwZTfvHlzXrEhQ4ZYxNpg8fPzs8jAnXd83bp1Ji/bk8HfIlYRS1hYmOXVV1+1yEBvzlkzi4Jg5Bs+fLj1kEWsFZauXbvmfc7/Riwbpg+iiFhEkbK0bt3a8sorr5gsrJ/yWNNdd91VoC3r8XP+lb5aLu1jsXgEWCzTPs/LrpYJq1alfyseAVomNCkBJVBpCdx6662yB1ma7HsVbCwBfCr/66+/8njQQkCrxbfffmumFWhdKG4SJQX33nsvevfujUsuucQU43QF05EjR/DTTz/hhhtuwBNPPAFaCKwp9dSuwSNGjDDnY2JizCnKwekPJms9NWvWxJVXXok5c2RF2qnEKQ2+ikqiuBiZLrvsMmPVoJXCaolhncmyaR6tIDfffLOZIunSpUtR1Zz9GH3PHhHrTrZsMvfM+Ly8qkzkodA3SkAJKAElUFEIyCMzGjVqhKVLl5oBmT4TQ4cORa9evfK6+N5775n3nI6gLwV9G+g/UdzENjiwc/oif1qxYoWZhuC0h9WP4bXXJF5DvvTxxx/LfnpB6Nu371nbtPpE5Cta4O0777yDZcuWmWOUhwoFE5UTpiTuACyJvhtUVsSKjE8++QQ1atTAypUrzbkS/9Nb9vSoWw/YvRX46WdTXJWJElPUAkpACSgBJeDsBDh4cqD+999/8emnnxqfhFWrVoG+AzxGH4Ply5cbq4VMMeHgwYOmS88++2yxukaLxwsvvIDffvvN+CDkL/Tiiy8aXwo6YdJngs6Ujz76aP4s5v0zzzxjfBzo/1BUonLAAV+mK4o6bY7R8mG1qFAmOoC++eabGDduHGj9oKMlE+sKDw831omXXnoJhw4dwv3332/Oleofs225qBDPTzDFdTVHqShqIack8M13kF8IMFicisQzWpMSUAKVm8C8efPw+++/Y+PGjbJDui9+/fVXM7DTYZGrN5juvvtuTJgwwUxFjB49GrQgiE8C+vSRjQDPkB577DFjjaBVgFMRXFXBNHHiRNSqVcsoLhzEP/roI0RFReGqq67C/PnzIX4K4FQLE1eUPPfcc8aZcsmSJcaSIH4N5hxlooWEigRXgHz//ffgdAiVDzphUv477rjDKAicNqFDKJUVWiNobaHTJq0l7HtgYCDEF8QoPJzmYB1UNGipEX8Ko/QUtpoYIc71T6/LZEmJTCWHhgGcuhFtRZMSKDMBp3DAbNZWdG/5Sq9aXeb+aAVKwFEE1AHTfqTFN8AifgEWOibSEbN69eoW8ZmwyMoJi/hRGOdIq0MmHRKZT6YVLDK4nlWoVq1ambJ0nBQFxRISEpJXF+vz9/c39dChc/fu3aZt1tupUyeLTC+Y85Rlx44dFlEOjCxiLbC0a9fO1MO8YkWwiBJi2bZtm5GF+VivtW7msb7uueceS/369Ys81759e4usYrHIMlZznp/Ff8LUScffDh06nLWvZzxJR8x8yY3vz6WA6HklcC4CI0eOlFVC8fjqq6/OldU+55NluVJQOOAjmnJavuVK9mlNa1UCNiPAp0kZgEy8AhkUbFavVvQfAT6l8wmeT+ma7ENAfSbsw9XmtXI9NE1kPXr0gCwtKlH9NLWxHOfJGLTF6jFc3EromUyzH4O0OG3atj03SFX7tk4rogqmBJRA+RBggCdVJOzLXpUJ+/K1Se1cysSAKwxUkpCQYKKs0VuY83APP/xwXhu0CvTv39946vIg58QYiIVOQLL+GTfddJMJskJvXlm3bDR1eiJzru3yyy/H++/LXhanEqO09evXzzjocM6P84Ccd+STE6O9OV3avz9XJHnC06QElIASUAKOJaDKhGN5l6o1hj5l2FauHaZCQC2bg3/t2rWNgjFs2DCzNGjw4MGQ+TBjwWDkN4ZRZYhXTj/QmYchVamMcKkQ66NplY48XLrEcnQI4lKmSZMmmQhtbI9ezoymRi9gOgEx+hoVC6dLR4/RWwKoVcPpRFOBlEBhAnSEO5MHP/PyN1d4uWHhOvSzEnAKAlwWK1N1uprDKa7G2YXg4N25c2fceOONxkLB8Ku8GdFTl0pCbGysWX4kjjnGI5kDP8PDMo81WAqXJlFxsJ5jDHgqFKtXrzaWCyoW4sxjvIEZapWBTegRzDYZM555ad1gHPmBAweeXeDyOBtaRcK7yhKofLHiy0MMbVMJFIcAVxbwN8fgQU899ZSJAcDfJH9jDDLE19lWExSnDc2jBBxCoH5TyPpaVSYcAruMjTC2Opf27Nu3D5ze4Npg8cKFhGs1gz8HegZi4XpnxnLnGupLL73UxJ1nkBZOd3DpENc+75fpAMZkF+9jY92gUxKjwzGC2yKZDqEiwahtvMlx6RQ3yXn++edN3Zz64I2P65N53KnStVcBfDlJSk7NQNLJTKTwlZaJhOQMJKZmItl8zsLJ9GykZ2QjIztHgt7IS6LxWn2h3eAm1ic3Uf7c4OXhDm8vD/h5e8Df1xMBfp4I9vdCcIC3/PU2xwL9vBAk7z0lrybXIMDfLJcj0ppI6x+nG+nbxOV+VN7po6RJCbgEgX3ir+YRAF3N4QJXi9MSXJvMICy0LjByGacruMkMrRF16tSBLFEyIVy5iQw/cwqENywO/MzLGxSnR2g6pUMlLRWMDsfNbhi8ha+6deuaXeuYl1MfW7ZsMdYJ1k2zK6dbWBdvfKw/fyr31Rz5hSmn93/uPI41W45iz+EE1KwagojQIERUCUBIoJ9RDMjfXa4hFQVeS/lj/lJc+ch/+Y8kKhan3skbvpdFWEbZkNVYcg0l6p68TqZl4HhCCmLjknDkeJLUC3RuVg1d29RQxSIXn9P/26JFC/M7yy8o1/xbQyDnP67vlYBTEuDNS5UJp7w0LilUZVQmOMj/vfs4tuyJw56jKahXI0xeoagWHiSDf64CwIHfanGw9YXlb9goJaKVUEmhNWT3oRPYtvcYqgR4oUntYLSoF44qQT62blrrsxEBBjtigCJroiJv3avBekz/KgGnJqDKhFNfHpcTrrIpE4eOp2DSrE3o0bkx6lYPNdYGZ7poVGISU9KxeN12dGwcge7tndBp1pmAlaMstCDS2sfE5ddcpaVJCbgMgVPKhE6yuswVU0GdhcCBmCT8uHIfRgzohAa1w51OkSAnTqWEBvviqh5tEJtiwfdLd+ZNnTgLR5UjlwD9lJjoAJ1/E6rcs/qvEnABAtkpUGXCBa6TilgMAguXAGOfBJavKkbmsmX5eO5WdG3XQHxS6INyyrmhbFXapTSnYbLFR6ZNk5pISnNDljh6anI+AlzmXa9ePRNUTgMrOd/1UYnOQWDjJuDPv3Q1xzkw6WlXIbBSlAjZtAY1qgMXdrGr1EdOJMNLFAla9zhgO3uirCczsuzmu+Hs/T+TfPvFwvT3rlgkyHRQeV/H83rehJpt+uOL3/49k7gOOc7vSq2oIHRsGgUPevRW0sRdRrm7KH2SSpvoK3X++eebLb9LW4dLlGvbxoipcSZc4mqpkOckIKtc4OEtL/lr58QYLT8u3oKL2kcjJMjXOD/auclSVc+bWUZmtvhN7MTW3THirdmwVPVUxEIf/bQFyWk56NyqLho3CDy1mqb8etq53XNOoZmmi9K5Y/9xPPreStw1qCWia4SUH5RybHnq1KlYunRpmSWgMkKfGC61r+hJlYmKfoW1fzYnwOmNfhc1w+YdR3D8n2RZopmFaPGdqFW1CiKr+MvCTlnJIdMfucs5OUbYz3zx3zJTWTYsD5JJsqLjYEwi9siqDi4dDQ32R9P6VREZJhsc2VEOm0O2Y4XvfLsZ7VvURZQw4XXiVJCmXAIe8iVqFl1VvjNRWPbHHmzbF48+XepWOjxlsUjkh9W7d2/88ccfZssC7o1UkZMqExX56mrf7ELAIgNQlgxAbZvWlAFcfBGycsRcfhQL12xHbHwKIkMDER4agDAZyKsE+UmgKW/jEPnfwJ+7pJPBqcz/eZZUc8QoIzLyW/83ygj1ACol+eNNMOhVfPJJxCWm4kR8Ko6eSDJxSKJrhqFtkxpGDg6UHDC3iHxwq2oXHq5UKS0S7ZvXQXiIvwkW5kqyO0pWqx9Qtw4N8NuqbThwLBm1InW3zdLynzhxopnqmDJlSoWe8lBlorTfEC3nXAQkNjyyU4Es+WvnxEF97tKtaFw3Aq0bS4AosVS0alQNrRtVN4N9Wnom0tKzkJ4pLzEbx4iPRXpGZm7Ey6xsZMqLzpB8cbCncsIbuNV+Qd0iN36ErMpwczf184nRS6ZwGA2TLx9vT/jKy9/XC6Gy9XpzeZr08/GSvB5G6bCWP3gsCQtWbzdKhtFc7MzGmavnKpzkNAuqShwQdUY995XiFFknmQZau/WAKhPnxnXWHFQkHn/8cTz99NN47jmZ0qooiU85p/xKVJmoKBe1svfjmiuBprJj6ClnIHviYCTLm/q1wZKN+zBj7gYzvVGnWhUEBfjAx8vTDPahIX55lgXKwt+bMUDIG6shIr8p9dTvMU9s/katyagZtEzwgPmb+4Gfc+sUPSqb/hFZMs2RLqG6s3A4JgG7D56Arygb1/VqaywnlX2aY8ueEzI41jHRQ61s9e/ZCVBx3Xkw+eyZ9GyxCHA7A27U+Pbbb5vdl4tVyNkz8cYVGKF7czj7dVL5SkCgaRNRJuTlgMSphtiEdHRsXgvtZDohVfbeOCmvA0cTcFymOTjVkSyDOkNph4k5PUSmOkICfWX/DB/4y5QHrQlGecjVCYqUOL9yweiWVBrSZFoj9WSGqZsrEBKSOMVxEsfiko0lg22xzWoRwahfKxwtGlYzFgzu77H/SLxoHtWKbKuyHExITkeD+gHGClRZ+lzWfnIaj3vLaLINgc8++wzjxo0z+x09+aQsZa8IKSUWOHnStZeGcpOq9PR0cyP1k134fOSlSQnYmwCnORav3yUWiRDQIsG9N2iVqBoRZJQEDxn8ZdYCJ8SXgYN9YnKaDOZxJty1UTxkGoQKAqcueLOmLwU/52oYIr1RMjj1QX8HmbnJkWkR8cvg1AanMuiDwfZCRXmIFqWBSoSPbATGvFa/CqofJ6WdfYfjZSXHUcSLHKfsGPbG49T151qDaNPRVDwCxvZVvKyaq1gEnnnmGbNJ46uvvoqHH364WGWcPpPcv1xumuOnOXMwRZbtrFi8BLWbNoKP7HhpkbtoSuwJxB46jO6XXYabZKfMPhIIRpMSsAcBrr+//MImOCa+ECvF433PoThjBWhYOwI1ooKNGZ3TFLRGBAeIgssPeffk3Dcc9HmYmsOpP6eJSv2CiQPgf1MiJrdROFgnlQbm4zQHlZJ4UVx2HYg1S0FZnD4dF3eIls/HcuUwNeo/SkAJlCeBmTNnGusEN3V78MEHy1MUm7XtEsrE9m3bwCAi365cirod26LhHUNx4bsTkJP1XyAeN7nBWyS+/d6Nf+KN33/CvS+Nx4BOF2JA337odkl3mwHTipQACdBvIlymFPpe1NyYzXcfjMWOfbJr6OZ9xoJAK4IPnSVljblxmjz12UscJOmwye3CqZTw5WYsE1IplQb5Q3XBWBhOOWbSSZPblGfyJU5xGeLASf+IDJn2oJMc39PZk5YIWi6qR4agv8jFGBh0NMzv3ClVa1ICSsAJCHCaY8iQIRVmysPplYlHHnkEc1evwJVvPI/rbugnN97cqGwn4xOK/DpUb9IIfF1wy1Bkiwf9G9/8gKuvvhor16xGo4YNiyyjB5VAaQhw0OfKDKY6stkXX0xWq4P1b6YouZzq4K6e8UlpZtBPk+9mriKQbRQFKgtWJYJTHrQy5K3gkCkM6xSHv683Av29ZdlngPheSJAuSbRM0HJhpkrMkdx/WL8mJaAEnJcALRSc9uDusXfddZfzCnouybIznHeaY8eO7Rh5zz2Iurw7hs14H2mJSefqToHzvLl6+nij0803oOWgfhjy7GPoGBiOZ599FtWqVW5HtAKgKsqHaZ8D704BHrgPuLZ8d13MnZYgWNoZYCwRHPjNoH9qWoLH+dmah+/OlKiUMFmVDb7h5Mipw2cqpseVgBJwAQJ0yLzxxhtx+PBh11w2mszVPvIw44ysd+/ejStvuAFdX34SzXtdUmJFIn+fstIz4O3vhwFPPIjIkdcjulVLzJs3L38WfV8RCBw+AqxdBxyVsNFOmKzTFpyysMaYyBSnSlo2zvWy5qf1glMW1siaTthNFUkJ2JwAnex37dpl83qdqcLp06cjLS0NH3/8sTOJVTxZZLdbBPg7n2Vi3bp1GPXU47jmkzeN6bZ4vSleLi9/f4xd/CMmfTwDS5YuxYsvvFC8gppLCSiBSkPgy+lTOVcl/ikZuOr6EZj8+njcPeYJeHl7Y8rbr+LK64Zhw7qV2LdnJ24f9RD8/Pzw84/fYO/unbL01x+dL+yOOvUb4vtZ02W1WZrxr/Hy8sI1N9xyGsPY4zH4bd4P4v+SjpvvuA+pKal4/82X0af/1UiIP4F1a5bjvoeewKrlS/H3HxuQmJSAy3oPgLePD5Yvno/4+DgEB4fggosvw8nUFKxfuwI+Pr5o2aYDWsnrn82bsEGOeXv7YMjwkZjxyQeoUy8aDZu2wOyZH2OQ9KVqtRpmau404cpw4NixY3jnnXfMPbxjx45gWOkJEyagc+fOWLVqFXr27Il27dqB0SE5iNLEHxUVhQULFuCnn35CixYtzH4WiYmJGDNmDLZu3Yr+/ftj4MCBaNasmYnVcPz4cYwaNQpVqzpvZNfffvvN9KO4KLnCIyMjA3fccUdxizhNPqfymYg5ehQjx9yPIV9OwcmERNtDkhsETdAX3j4M//yyEBd27Yrf5s83NwPbN6Y1KgEl4GoE/ty4Fh3EcbtDp5a4qF0rjHn0PhzYvwdb/tqI2vUa4M+NazBW5ripQCz49UfEHj+G6jVqof+gqzH7q5kYdM0Q/O+FpzDqgSfQoHFTRFWtAX95cvvq8w/NgM37T/4UVbU6Op1/MV4a9whuGH4HQmRvFz9RSBo2aQYufd8rCktKyklRAt7HlM+nIy4uE59/9C6aNGspbQ7GxFeewXVDb8XqFYtw5bU35oZTb9gEAYFBppl5ouSMffZFLPhlHr74bKrIWhOff/wuJn4wEy1ad4C/f4DNFQlaErhbZtOmTc399vvvvzfKxJIlS/DUU09hwIABRqGggnXixAlERkaiVatWOHLkCDZt2iSB1nzx1ltvoUOHDoiOjgaVBiocPM8yrGPRokVG4WAbcXFx+ZE6zXtaI7NkkUBJEi0TgwYNUmWiJNCKyntpr57oM+kF+ygS+RrMEYe45pf3gHdoiHzpu2DxkqUIkSWmmpSAEqjcBKrXrI1Fv83FRnma/3TWr2IpAHxlcN+3d5cM2ItRXwZq+oC/PuEpTHxvBp57/D68+MZbEAME/tiwGhkykIaFR4ifjBfqN2iC+LhYqcOCnpcPKtLSKlVj0svP4O2pX+F/zz+O52WpYHZ2FnI4pSX3qWx50brwzIQ3xVKRY8KrXzf0FqNoVAkLl2mvbISGhqNj567GkZeDV6aElmeMkpTkJNSoXVdkykavfn0w7OoBYlW5UXzRHsHShb/IwOxtc0WC3x5aEzwk9PscWcbP9Ndff5nPt956K9q3bw/rhlfVq1dHnTp1sGfPHnOe1gxapvmZdfz7779o06aNiRbJHTzHjx9v6mMkyebNm2P16tUmztDmzZvRsmVLc86Z/imsOBZXttKWK2799srnND4T9993Pzreeyuq1HCMc2S2/OCiz2uHHq8/h0svvVS0f7lraHJdAj4+EthBFEJxutWkBEpLIFCe6IfefLuZErh/5GB4iO2WA2NgUDDCIqLg5x+IxIRseaKOxWsvPon1a1bgWEy8KApAtCgPtFhUrV7TTG2EilLBvVXo5xItSkhRads/u+XJOhaT33gBm//cIEoClx3n7q9ChcBbplY8Pb2NouLl7W7qdZM6Q0WRCAj0kCrdxPLhJxaH2qZ6LjO2rnjzp6wyVcLPMmMjikOOUWiq16yDVUsXSD8od0FLSVEylvSYv0wnU6F54oknwIiPY8eOxYEDB/D5558bywNXLjBRAbjwwgvBFXvDhw835v25c+di9OjRCAwMxOzZs00+Wi5oiaC14u6778bgwYPRVazKnDYZMWKEUUhMRv2nfAiI4yiOHHUOnwk616xPjEHfS4eDDpOOSgx2VaVmdXR87B60kjm6f7dvN2Y0R7Wv7diQwG03A9dfY2LE27BWu1fl6+shT5DpCK7iI3+zZeDwEDMvg1AxQq0u7bT7BSjUwEKxSiz8ZQ4ayTQCn/Z3bj+AlcsW4s77HkVwSCiGXnmp7CWXIdaHcLEWvIAXn/bGs4/ei3YdumD+z9/hs2/m49OpkzFrxkcyjdAen37wpnn6f/6194y1In9zHMhffm4sunbriQcefxT33HIzPnr3DXTr0cccrxIaJlMf/2fvKuCi2Lr4nxREBMXGwhYbG7G7FfPZrc+uZ3c9u+tZz3x2d3d3K4KFhSAGXfqdc9flWxbQJXcX7vmJOztz595z/zM798zJXiTEpMfS+dNw5+Y1fCXBo2GzNihSvBSZK9bhEgkFh/fvRt1GTcnschi7t21A+gwZUalaHdGvCflKrF46B+/evMbEmUuxYtEMMtXcwF/jZqBTi9qoWLWWKkvxsm1BZp2LFy/i+vXrQs2/YMECIWT1peg8FsyUtGPHDuEj8eXLFzRs2BBZsmQRQsO1a9ewcOFCIZCwUMK+FVwk6+PHj8JHIl++fDh8+LAQUFq0aCHMIso+Y/rp5uYm+GQBRVIsESDTGcysYEB2HUXcWSz7iY/TKlStggqThyGVTdr46C7GfRhSYqG3dx/Aa/shbN+6LcbnyxOAHj16kDPYF2zblvTx6zfvLIZ0qByeYyK21980hRGmjvmLHObM8dz1CeYs20C2+TuYP30cbEk9PW3eCnoYx49AcdflPRqVyywSaMWWX30/b/spF5QsmleYA6Kbi4mJES14wGcq526dxpIWtB+kATAQ5g5+VPI2m8H5hd7PN5R8DozpzR9kkqAQYBPA1yeMHDWNhCmE25mRwoyUB0JQjGrMlBaKNOgB/qHUt7EQIkOCf5CPQIDwnWDtBI9rSn1+++oLS6tUYiw2f6Sg+4dkBWFiCabqtCZcZI6+8xOdNRGc4IzbfPL6jDQ2aWhfGGlWFIt5gH8YaTSMyGlT0X9UvPE+Fng2UTG78Z1KRddE7/ezuYV9MbZu3Sr8NFgbVKlSJbCPhzqxcFOlShXhSMp+HCz0KE0wpUuXxowZM9RPifH3pk2bYvfu3TE+T2sn8I/ByEL7mon1a9fCsnRRWGXKCDY9aIM4k2aWIvbwevkaQ4YOwZzZc7TBhhwzuSFAD31T8rwfPXkS7t5+RA9uQ5SvWBbLF5iTs18uUo8nN0C0P19egPkxZE6q+iDyNWDyUfEFV93mhTaC9oj8Jph40VaS32/87/z9FG25L+U2n8vRFywwKImznZqRCUW1b+aPXDR+koEQHtQfodwmlaVV+HksRChJdTzlvqg+tf+6GRVX8bePTTDG9ELp6OgoHD7ZJ4OFi6iI93PkCeeF8KCAAfbj4DwR//zzT/j1ekYabhYy2LmU23NUy4ULF3Dv3j1h5mHtzIoVK0jQY0kz6ZDWozm27tuLqgsmIchXuz4LbPIo1aopDo2fgV07dsK5ebNor7LPT+cgV7ppHrm54rXHe3wjn4sUZGBNT6rJXFmzUTXsfGB1XK7cuaPtRx5I3giQKV148s+e9jfdJ/nIYS8faSZcYJMhE3LnLYglcyaj/7CxYpFI3kjJ2ccNgbgpnzm6Ys0qWix/6IyLXdzgUDub56ckNrkPHjwY7AwaHSm1RRySyu1dXV1FWGuZMmVEqCv7fLDfCIe9suBQr149sC/IgAED8PjxY+Ecy5kv21INqaREWhUm2As3rEBOrQsSygvKAk21Ib0xoscgNG7aJIJ9j9uwk2bfPn1x89ED5G5UE7krlodJrnKwJak2Gzk5iayE5IX9gV4PHr1+C9fJG/H6wjXMnTMbjSg+WpJEQIkA1/a4fukCAql078BhI7F143rxZnOd6s+Mmjhb2NcvnDlOKmyqMEp1PCTpHgKsTdC2lTgxeOBcGV269dS9CxBPHLF5Q0l79uxBrVq1UKdOHeWuSJ9sBmHcWdvAuS849HXu3Lmi3ciRI8Xn169f8fbtW+HPwUIGk7u7u/hkP4106dKJ7aT0n1aFiS7duqLS9NE6hSd7PjeYOAJVKcLjDCVQMSTJktVgfLPsv3UNlShHRZuJg4RJ5ldmGQvy/7ArVxIBlAZ89j/rsPy/DejWvBWcyWFIUgIg8JHeJMijGORQC3KO03XiRcgmfUZKWLQXL18+I+ez7KQSNcVzt6fkaHcV9oWLw9o6DR7ev4miJcpofdHSdTwTkz8WBDkM1PuTl/Br4PBLzjfh9fGDMI9weGY5SlzFOR5atGmPGxTCyG3zFyxE5qzrsKQkUwEUtsGOl69eusKdwk6N6dpnz5ELeSm/hMuTR3hE4aCFyYGTtVWfKXLkIUV68KLOpg7OTZEnnz3u3LhC435EDrs8yJW3AM6S86gpvWWHUNKj8hWrkRr9/2/ciYmPPo3Ffg8cdTKVEhiyk6eSohMS2Wfi9u3bIvW1DT1nOnToIKJR2Gk0D9V+YrMGCw2slWb/MUtLS0yYMEGE8nK58ZkzZ8LOzg7sOJpkqHpdkQFTa688T1jdY03hVtmz6RymabNnRfY2jbHu37XYRg6ZdVq3gLEzlTZfNhs5HIoimB4EvxIkeEJsNgkJCKSHhAlq9O2GMmMHYe3dq6hcpap4KOjcpPWdoXUbyWbgBGzdoRcz4YcVZyL8a+x0dOo+ALUbOJPA8B1/jflbLESprazJxDGBvPZLS0FCx66ox4d3uH7lAqrVaiAEg2OHdotsk5yxskz5ynj+7IlQc1++cAob16xE6fJlRVKpHHY54f7yOUqXrShCPn18vlAIZGp4enxArbr1sW4l55L4gqzZc+LZkwfYuWWdmPkLEjBz581PPhV+FGFSEa4uj2lx8sOTx/dQtWZ9LF/4t3hTvkMvO6Uo4ZYTRWgsnj1Jx1DTTXZYw8CmB1VB4lecsrDATpaclZMFCSYWENjfgjN4sr8Fm00uX74solCUmSxZC88+E82bN09aggQDcPwgsGe79hww9+7eA6fBvX67KDOviU2cLCZfJUcMb9YB9tUro9UaCu9ib7g4eCKxhqN8t3Z4TVn1HCk517JZc6BUfyX2/JLkeHx92H2eHRH0jPiBJkl/EPCh/AwNmrYWQl6psiVhX8SBojcMxCI/bdwQDBk1hfxcQmlhdyIHTX/4fA0Q+SEofQQlsfLGxn+XwrFidQovzUDaDA+8ef2CUmOfRSbKpMlaD+9PnqjbsAXevX0NH/L45BwS1pSYyojChlnFXojGO3pgJwmdVWmfMQmdE7Fh9WKxiHEGTx6zQKFi+gOoFjlNCCdIDo2dPXu2CIdVTo01FRwimzopJkf8+fzSmpnjPqWJzd+smmKRViKuY5/9dm0QD4wfKl7VcWGRNRWZ7fOj6cq56NZ9MP6ZPlOknY1Ln/JciYBEIHERCKUMlUGkHnd9+gj/rftHCBJjpy4gc1RpfCZzBtf0YPHQ398Xzf7oLDJqsgmLKX3GTKJ2B5sgWJPBxFooF9JEsPnCOk1qHD+0BxfOnhC1Nrh9MTJzsdMfV4tlwTMXqdM5QyebM5iCKIyUzSScHCsdOe/OmjxShBWLg/K/REeAnS9z5MgRYVxra2syW1pH2JfUvmjNzPHoixcJErr9Fhmd3SyuNwFrPlqtmY8h82eKojZx7U+er1sI8AM/tRXnK1DE9Key/P92VJxyuysXzkRpzuA3VTdSa7MzJie0kqR9BFhTsGX9CmG6KOZQBiVKlceRA7uEEMA+C4P/bAda+nH5/Gm8ev6MfB68yJTxnoQPN0pjfYySRl3HgT1bcPLofvKJuYXHD++J+hopLVJhw5oVWLVsDibNWkohw3MxdmgvIXTcpsJi3H7LhpWUKTIUNes1EX0cPbibNMwb0ZgSWd25eUXcK6s378HSedMSLMOl9q+A5EAXEdCKZoLDYuwckrcaLiw4BE3mTsHYzv1EOlgudCMpjggIM5T2BdSvVMmxeG47bNpzGgVJ3VyV8qjMWrye1OHFxRsmv7WGC6okeHBJcY8Pb0UtBlZbK80e3Ib/uF4ELzC1G9RBqO9PjFi1KN5UVfqKI3zydM0QYAfK0ZNnUhptT+GAaU7Fsvhy1G/Cfi9Amw5dRI4KXtTZ8saZMNt27knROj8oQ+ZhYYnje0AoPGmjdoNGpGX4TqaN5iQwGqJ91x5UT+M7Uma1wJHzt6kvClunbJxlKziJ/hXJpywwfNw0qlz6CvUaNRPJzdbtOCQSWnFuiXHT5lP/v05IpdlsZSuJgGYIaEWYWLJ0GcpOHqoZh0m4VSBFejSk8satOnfCpWMnSMWZJgnPNoGnlj8v0KwJoAN5PdJntBE2dZdH92FMuUfyFSiM4g7FcezQQVJfHxe1G/oN+UsIA6uXLSGPfjeypZIKlBYWLiM9jzJgfidnzC49B4lMmLx4cVEnXqiYuHbDjs1raDH7IApL9R0yNlwAUbSQ/yc0ApxEiv0YmMKTS6klqFImveI2bKVg+n+SKcV3/p+sJuHESbPwM3cfC5JkTRHEYwjhI7wlSEMRJgRNZZZULuilJOU+5Xf5KRFIMAQGD6dUr2ZIdDNHKIXWuD53Rca8uRNsbvrUMb+J1p46iry564i3UH3iXad4bdIIVOcZqBv/tQZiPE9a9NlurqipMBUVKtcgp7gQEeI3nRLZ2BcqjpVLFpNAsEU4102jsGOOEGBhgWs6sAPf2CnzRX0GNnMIIeKnIMG8+Pn54Nb1y+jeeyiyZM3OqokYsyhPiDsCSs1R3HuKfQ/MgySJgFYRmDcT+Htm4gsTHBJaqF7NRC3opVWgfzc4PQxs7LLDvlsbUVXvd83lcd1HgNZ/8pcwhlOVWhg0YrLIVcKpspn42Z8hUxYS5FOSs56n0FLwfna+M6NCDh/evcFXihZ4S4WZho6eSm+mgVRDges+mICcxEVfXFq698CRQjPB2okPZCKRJBGQCEgEtIYA+X0lipnDx8eH8tt/o7ezAJw+dRo5K5UH18OQpEDgOxVzylm2FAa37IRmzs4i8Y3ERn8ReOP+Hp88P+LqxTNwKOOIoxN2ISclFuKwvtFDhojPMZP/FmaN4f17YzM584XR72HLhlXoN3QcBvVqB/uiJUSFyIkzFmM8lXB+4foUQ/oMQdtOvUT44LpVi5GG1OxfvnyiZEc5Zcpt/b1dJOcSgSSBQIIJE/xGNWv6DJEFzCZnNqSmP6P0afGd4rGLV28gnM2SBILxNAkjqvjXacUCNKnXAEdOn5Q28HjCVRvd2KTLgJX/7aN7XOEAt2LjXuF46VDakUpFNxc+D/4/Cy5NnLFE2Ny50BCrrDkEcMXGfeRQFywyYrLtezjVi2GHPVZoi3wn9Dl2yjxqEyLSbgs7uzYmKseUCEgEJAI/EYhXYYIfhBcpX/mKDetx7PoV1OjeES33rIUJqW/57VuZ+InfwiRFRIAXEqssGWFYPL/I6Z41a9aIDeQ3nUGAa7D8jsLofleS0kFPYd+m6A2lNx414G2O3lC24XO+Uz1rdrJU7uNQYnXiY2w6UbZRPy6/R0bg91ct8jlyj0RAIqABAmFB8eczweVWnco7Yv75Y8hJcdZ9t6xG/uqVwAmfgv38yUciSFHPQgoS0V4ZDhfNU6sKJkydHG0beSAaBK5cA2ZQsZ2bt6NpEH+7bSzNERD00+U+/rpNsJ5YWAmie0sZcppgA+l4x8ZUME1qcWJ2kVgA5uyekiQC0SJw9Bhw8nj8CBMrqJZ70VrVUIVKiTtQGW8TczOhspVe5tHCH+2BTBTiuPvEcUqlK53qogUpqgMnTwMjhgEXLkZ1NF73ta2dH9cfvEIYJV0z5AQDOkrMGS8EL95+gtGPYApTTfTgLZ1CJks6CzwnLOTiqPll4VwV6a3MNT9Btkx+CFB5CFSrEndhoknTpjjl8xHd1y+DmVVqnay1oU9Xlx1T/6BkVrOoeIykGCBAPgcwoiqJFEWR0JQvmzWcCqfHql1X8MbjC4w4fEPHiIWcgKBQ7Dl1H2FBfmhdIz9pJnSMyURmp2T+DDh17ZnwP0nkofV2OB//INjntNJb/iXjiYdAnJ68bahqmnW9yshfs4qokJl4bCfdkdivxLZoIVzazE54oeRgF6dLlHSB0vLMcmWxwqzeTjh18zUu3vJEALkBZc1gjUzpLGFjlZL8HhTZKzljvMJXIv4ZZtnAgDQPLDiwCYNNLx+8fPD6w2dy/gyFVUojtK2RB5lsKKZUEkwoHXmHOgVx7aE7yhXJgRAVvxYJT0QEWPD0DwzB+Zuu6NNUZueNiI78FhUCsV6palOSpYzOdZHLqawUJKJCNg77QqkgmG9Ga7Lvsrd+rC9RHDiQp2qCAD9wq5eipFE/6fpjD1y86YJXH3yQK2taZE5vhczprJAmtflPrQCdoPinPCVGn8KB8P//iYf9+08+eO/5Fe7vPyOM7Nvl7DOheaXssDAziVHfyaVxkVw2ZOr4ijM3nsGxWK5kr62J7rr7+Qfj8IVHGNSqOFKYyJow0eEk9/8fgVitVPMpi1/GRjVRgBws2bFSUvwiwG+yuUo7YC7hPHrkyPjtPKn2xo69YQGKMuRammPpghnBf0xeXwLgRaWnP/v44pW7NwJDviOY/oLoL4Ts0CGhPxBKtRpYc8G1Oeif0C58DwmAgbGZUMWzsGLEmgf6MzGiP6rbYGpsQA93Q/GXMoUxsliZoUj2zEifJhcdkw99TS5944q58PilN24+cMNnvzDSAFIIryYnJlAb0ivhR6g/DEwtwkN/E2io33bLWq6UZobIYGWKwSRImCZTQYKfwV26dKGU5YrKrL8F7mcDPk/5Asia5Zg4PXPb9+/fw8pKj8xKigeXmL0BTT5Gv6PTp0/jz6kT0GYx2fRjdqqm10O2IwRCSEj717kj3jx/qRd49OjRgxIofRF5RbTC8J27wLUbgGM5oHAhrbAQ10H9fb9hwoSJmDl7Tly7kufrGQKtWjbHFiqAaGAkNUp6dukisfvgwQPKEWOC/PnzRzqWJHdkygmktoyZA6afnx+GTZqIPxZOl4JEAt8VKa2tkDJ9Orx/9y6BR0oi3RenKrQ9uuqtIMFXoXyFipi3YGESuSByGpoiwAn+tu/YhWo1dKCujKZMy3bRIsDXk7M9JxvyeAW4usVMmFiydCnKDOoeI9VNsgE0nif6PSQU+etWx7WrV+O5Z9mdLiJw+fJluLm5CafbPn366CKLkqcEQoC1eqwgvnv3Lp48eZJAo8huJQIJiABFtGkc0/bG3R3/7tslq30m4PVQ7ZqzHhaoVhG3byV8EibVceW2dhBYtmwZVQP1E4L62rVr4U6/N0lJH4GnT5+KAn9sL//8+TOWL1+e9CctZ5gkEdBYmBhOxYZqjBoktRKJdBvwm4q1bRZ4ffJKpBHlMNpC4MOHD9iwYQNq1qwJJycn2NjYYClpASUlfQQmTpyInDlzImPGjOL6L1iwQPgeJf2ZyxkmNQQ0EiZ8fX3hkcIQmQvkTbCY+aQGbHzM5wfVaPD78T0+upJ96DACW7ZsEfVYjh07hhYtWuDevXsoUKCACA3WYbYla3FEwN/fH85UJfj27du4dOkS+PqzRorvB0kSAb1CIMxPMzPHocOHka26E0IDZRhool5g0k58/R6z0KRE5U+XBtu2E6jfFNh3UJe40oiXgQMHInPmzKJt5cqVYW1tjY4dOwqPcI06kI30EoGUKVOiefPmSJ06dbgAYWtri169eunlfCTTyRQBqstFNjrNhIlREycgS4F8yRQp7U2bI299KJOhJA0QePECOEIFZ16/1qCx7jVRxqOzultS8kPgzZs3YtLK+yD5ISBnrLcIpEkDegP6vTDxkGJmzbJkgEUaa72dq94yTtJEsDRzaHj5KMMTObGJFJManqGLzc6dO6eLbEmeEhiBhg0bJvAIsnuJQMIi8FufiR3btsGxWzuEcYZBSYmOACVJlJSMEHBxcUlGs5VTVSJQvHhx5ab8lAjoJQK/FCY4ouDh48fIXb6s1tO86iW6cWSa5QhKtBzHXuTp+oRA6dKl9YldyWs8IXDy5Ml46kl2IxHQDgK/FCbCKNdBoJWFrL+hnWsjSyXHBHc2cXApcLZ06DGVLFlSj7mXrMcWgTNnzsT2VHmeREC7CJCcAPr7pTDxncph+6dMQeWMqbEkrSDAhXckaYBA147A3WtAm1YaNNbdJo8ePdJd5iRnCYaA1EglGLSy44RGgAoTwirjr4WJz5+9YWKdWpo4EvpiRNc/yRGmBr+U96I7M/ntp0RPKFgAYM9iPaYLFy7oMfeS9dgiUL9+/dieKs+TCGgZAfKnpHokv1ypblEylTQZ02uZ0eQ8PJUDNpRlpZPTHcB5BiQlPwSeP3+e/CYtZ5ykEPilMOH6zBVmVqmT1IT1aTIcc25paKxPLEte44hAtWrV4tiDPF0fEdi1a5c+si15lgiEI/BLYeI91QwwSWke3lhuJDICQpgwSeRB5XDaRIBTLEtKfgikSpUq+U1azjhJIfBLYYJrchibmCapCevTZL5T9ksLY6mZ0Oia+fgC796DSm9q1FxXG504cUJXWZN8JSACLVu2TMDeZdcSgQREwI581QrZ/9pn4jtnXzSIY54Ders2NjVV/KUwhYGhSnSC6jFqY2QSeeE0oHA/E7MUMCUNiZGpCbWJ+KZuTH0qjynh4nN4v3JcPidCmlrVcdV4Yh74XEMjha8Cfyr74T6YB+X3SP0qGYiHT0MjQ7y6cRd58sk05hrBuXotUKQUsGmrRs11tVFQkKx/o6vXJiH5MjeXGuCExFf2nYAIuNwHbl1G5NVbZUzLVJbwDo595ktefD+6PsephSuFEPGDQk2durWHbRF7+m6I9w+f4Oyyf2FACycfs8qcCbWG9oWhsWIh533Xt+zEgyOn8OXtB+QoWQwmtNDXGNIH5qkt8eHJM5xeshoeT58hOx2r2K0DshTKj1s79uHhsdPUrxF+UFhrSkoFnrt8aRSqW0OkIYiOJ07StW/cdHz76InsDsVQtU9XnFzwD949eCz4Lde+BfGzG2EhoSJc1ox4EP3WqR4ufKjAF6dN5t3tzAV07/JnnPpJNifzIvz1KxCs34XRpM9EsrljI0x0x44dGDFiRIR98otEQC8Q+Kk9/6WZgysZhvoHxHo+vDgb0kCcp+Lh0VN4dPwMLq3dzGkdBRmTxiGQ1NJ87NMrdyFEKDUXxqQBODBptvgzoj6KNqiJF1dv4ObO/fCmtj4fvbCiVRd6e7+NwiQkuF24isUN/8C7h09hSOe+unkXLqcvirGfnDyHbYPHYN/YaYIf1j58p/LeEXn6QSYdEwSRzdrlzEWcnL8c7x+7UB4kQzy/chOuF67AxDwlPFzcxHnfw77D7dJ17PhrPFa16R5JYxJr0H6eyHO+vf8oSpctG9eu5Pl6hECmTJn0iFvJanwh8FpPC9TF1/xlP/qPwC+Fibx58iDg67c4zTJ9rpyoMUhRUjdnGQe4nFUs8Kx1SJ/bDj22rBL9Vx/YC/XHDBEaANZofHn3ATe27UaD8cPQa8da1B7WH903r0Km/HmRzi4H1nXth7TZs2LMzVOoO3IgBp3YDcsM6XFo2lwUrV8LBWtQKeesmdF79wZMfHQZuUgz8ZiEiu9UYySdHfFE4zEpeQoLDRP1R1rOnQKLtGlI+xCCvWOmoSZpSnKUKg6rLJmRuWA+lG7tLM77c9c6jL5+AnVHDcLb+4+FsCEOxNN/3u7vUCBvXhj9NLfEU7eyGx1H4Pz58zrOoWQvIRCQhb4SAlXZZ2Ii8EthglP7ent8jDM/+8bPgE3O7Gi3fC6CSdNxd/9h4R/BAkWQn0LzERoUjJBAhb2YTSBul64JTUXRBrXh/+WrMC1Y22ZCr51rYWaZCp5uL1GtX3eEksmBzzO1SIlijeri04tXCAkIEhoJ/y9fcHLRCtIc9MDzy9eRq1xJoZngCe2fMBM2ObKF83TvwBGhXQgJCBT9lWvfirQbd3B8zhJFimbyH2F+Q0nIYAr280cgOf2VbtVUfPd8/lJ8xtd/Hk9c0KdHz/jqTvajJwg8ffpUTziVbMYnAiVKlIjP7mRfEoFER+CXPhPWVKM8xPuL0BbwQhob+ubhKUwDKWixPzprIcwpb8WRGQtRqmWTKLtjZ8ujMxcJgcEkRQphZvBwccW2QWOEVoEdIFloYDI0JmdMMqUwkTJDCB9sWmE7Cms3Aj5/xZHpC8TCn84uOzquXiQEE99P3sSTKzluqvOkEAx4rpkK5EGhOtXIJ2MV0thmEWNE9R87fzKxH4Vg4ic/UbXVdB8LU+73H6EZaVkkaYhANkr2VLECQBokfaZSpciJVFKyQ+DUqVNo06ZNspu3nHASQGDpCkrVTEELv5oK+wtYBYSIRfpX7aI7xpEQz69eRxCFmLLZ4CE5UvJiH/jNB09OKdW5EaNFgnz9cXb5v8KEEURv/34kzKSlhaJowzrCKZI1EuzAaW2bGeeonTEJHEyBPn7C8ZK1DeynwQJBWtr++8VtVOzeAV4vXuPg1DkiEuPFlRtCqxCZp3PUkzLaxADNZk4kLUegcCIVgoIYSfGfEFloLq4Xr4odabORwBEPggR3xj4dVt4+MDMzUwwm//89Am1aA6ePAs6Nf99Wh1tIYUKHL04Csnb69OkE7F12LRFIQAT6kAa9Z59fR3MY06Js7hdIGoGYF/pizcCdPQdxhLQMHEpZY9CfqNC5DfZNmIGLqzfi8N/zhSni/sFjYpZXNmwjn4azJAQohItM+fPAtnBBLGncBsVIkDCnGiFfP3iItqzlaLt0Nh1rK47nLF2CnDNvwdfrEzqsWoA7ew/R95vwJ38Pjs6oM2IAvr73wBmK/PD19CZB5lxkntZswlHSmHxo7EpmjgDc2Mo+GOnQZuks/Nf7LxIxDEir8Q13dh8UPGzpN0KM50bCRNrstsjtGD+OkiIChgSmbKnTSH+JBLz/dbXrx48fw8nJSVfZixVf586dQ/r06VGwYMFYnZ8cTpLVYpPDVU7Cc6T1/peaCZ569RrVRQSFMu+CxnBQ5xyhEUaheibmZuSk+AjB9JbP4aBs6ggkbYWPhxc5Ll5FSmsreJHPAUdkPCdfiRQ23U2XAABAAElEQVQWFlTRNAyd1y9D3orl8eDwCVzduJ1CQN1Qc0hvZLbPj4z5cgvnzW/vP+Lmtn1kyvDDkFP7SGtREF/JeTPgq4+Iznj/6KkQWlrOm4rUVGeEI0JYIxGJJwrz5MgSD0ohbkrje7u/Ff3kr+wEFlY4DJQ1D99IoGF+WSBhJ1HHru0w5PQ+kZtCY2x+0ZDDYk/NXoyef/75i1byUFJFQBcKfbH28CuF2X7+/Fl8+vj44Av5H4WS8zLv52R2TJwTw9vbW+zj7yH0u+JzAqnoD+/n9twXC0gfKJuukvj4p0+fwvvh/Zz5k/d9+/ZNnKNsm1w+GzRokFymKueZRBEwoB97RDtDFBO1IhX+0BN7hOkgisPR7mJ1PZscmFi7wYs4J4Qy+FkJMyw0BEbs96BOZGkIJadKZozDNTm0NIBMI5xbgt/cw+ghxcS+BUa0+LLgwJqLsOAQ8SDisEpDGps7+EGOk+zcyWQizAbcKw1A/7hfPkeVJzaPcN4LPpf5Y775OFMotWU/jv/TD+rju5jX//fFbYv9Oa6Mn41zJ0/FraNEPrtHjx5iwdm2bVsij5y0hlu3bh06duyo1Unt2bMHf/zxBwoUKCAEAbblHz9+HMzbvHnzhJBw+PBhVKlSBSb0+3z27BkmTZokNA916tSBBQnj/DsdO3YssmfPLvIntGrVCsOHDxfCApfb5r4fPnyIY8eOif44mqFYsWLgfu/evYtcuXJpFYPEHpyFyKSmkUpsDLU53ndaN9gtgOnGjRtgrX7x4sXFd9VjYkdS+49+6zCy+L1mgufds10HkSAqphiwU6KIjiCNBAsSTIqoDY6YUJhP+DPSH7UXMg7JOaGk2eBFn00bYvH/KUhwX7zwiwWeNB/cr1IuYmFDEZURGC5IcHvFOEGKT+aJhAMmVZ54POW5SvMOH+c/GkCN16DweYmO4vofXRT32/cxc8rUuPYkz9dTBHQhadXcuXPx8eNH3KaqwfwgHD16NDjdM2sbOLmSKZkt3759i2vXrglhgQWG5cuXg4WEZs2aifavXr1Ct27dUKtWLbCA6fczzfnSpUvh4eEBS0tLWFlZYfz48bCh8vFKDUevXr1En3p6+WLNtiz0FWvodOJE1spt2LABnp6eQqhgwYK1cbyPf0NJnmiN/mU0hxKAwQMGovO0CchSuED4Aqw8Jj/jDwFTEoo+HjuHEj0Gxl+nyaWne5TS9cYtoFwZwF5/bfNsAtA2sRMoawqKFi0qTBf8oGSTBSdWWr16Nd68eSPevNgUWbFiRZQpU0aYOlgAcXNzQ7169fDkyROhfeDvZ8+excuXL3Hv3j2hcQgmgZ3bFC5cGBkyZMD169dRt25dEc3AWhBnZ2eUL19e2zAk6vgpKbJMkv4ikII01u/fv4etrS34hYBfbE+ePImFCxeK34r+zkwDzleuoWgOKjOhQVNkzJgRRk9f4jMlUrLKlCFcA6DJubKN5giwySTUwlw8kO3t7TU/UbakxCGHgDGjgfnz9VqY4EJfeSlZmTZp1qxZQtPAAgFrDXjxHzx4sNAysDaB37RYkJg2bZowb7Cpo3379liyZInQMLC2gR0K16xZQ5djPjgRF6t9hwwZIswlrAYeM2YMeAEdOXKk0FA8f/4cf5KfUKdOncS52py/NsaWhb60gXr8jjls2DDxezh6lKLKiPi30rt37/gdRBd769ZZcKWRzwS35AeIbaEC6LF1dbynjtZFfLTFE5toNrbpieN79+uV3VjrPhMz5gCjx5MwMRvoq8huqq1rGJdx2cTAC7cu0MqVK9GzZ08MGDBA+Erw2xb7QqhSVPtUj0e3zcKIenbX2PYV3Rj6tN/V1RV5KOOwJP1GgH2AateuLSZx6dKlZKVhU3iMaHD92Aa0evY83Ny8S0RCRHcKR32w02X4H31XJY5WiO6Ysh07UHI4aVQRJPww42qdnLyKHTCVbVTH5X6U37mNkoTDJp9LfxHO/ckT7+PaIAr+/s93OL/El/rDVPSjOl9lG+JTeZ5y/PC5q2GiPM6f7HDa+t9FaNHmD9XdcjuZIFCjRg2dmWmFChXAtvx27doJntTvfd4Z1T5NJqAuSMSlL03G0/U2O3fu1HUWJX8aIMC/mZw5c6JQoUJwcHDQ4Iyk00QjM4dyuvXq18dxsgNdXvMfSrdtHim6gxfwB0dPwvfjJ/GQ4ZwRaXPaivBO3maHxtu7DginSo6WME9jhSL1akbohyMnLqzcgLcPHyN/tYooSsdZ/c/Ei7P36ze49t8OCi31g4NzAyr45Qn7WlVFbglOXGVMURwlaP8TqgHCuSUyFciLbCWKiqiPj64vcG3TDlLRhooMnFwsLH8VJ8odcYjSevuJpFg8PueO4NDRIvVqiaiPezv2i8iOH8RHQRrLMr2NEhJRUdT9zkMSQhS72Ck0j1N5pExrjfsHjhHvoXDs9IdIw31z+z5y5AwSSbjyOJWL0lzEb2cpUlmgSI92GEhvqPPpTVVS8kHg3bt3wldBF2bMpjZpbkucK8EOrZL0HwGOZBrQn6paU0l59qNIThQjYYKBmUeL27ARw/GQKloWa95QRD4oAeOkUfuoOBaHcXIYJi/MXCiMs1X2O7AZr2/dw4HJs8WCym/0qcn/gkt4c94JJs49saxGB8rf8B4Z8+bGPRrj6obtlIhqPi3u5riyYSsO0vmcL4L7vrltD32mQMe0abF75GQR7cHpuLkc+aY/h4o+c1coi05rFuLUopVUCn2F4IWjMq6ThoULenVetwQ7h08QbR0pqRZn2Hx27pLQXHCmzQCqC3JszuLwgmfvn7ig8eRRoj2/lXG2zpfXbok5806uG+LxzE0UJDswaZZoF0Q1PFjA2Dd+OglUoSRMZMXgU4pS5qKB+n/EX/5qlbBt3xEcOXQIdchZTdJvECC1OcKC6C/mCdZ+03OiHvby8kL//v2FQMFOiezsuG/fPhFB0aRJE2GH3b9/v/CrqVmzpoiguHz5MjgdM4db1ieBn/vg8E4mPocTRh08eBCPHj0SzmGOjo4ifI1Vsrlz5xbOlpzfgc9hB9DGjRsja9asOHLkiAjTrFSpEviPQzY5dJOPcRvOM7F7924R7skOm9wX98k+ETwGO6LxmDw2O1oyLyws7927V3i9M6/MM/POc+BoEJ4TO23yHNnmzOfwQ5nPYSwYEw4hZadO9sXgbQ5HdXd3Fzhx1lg+J3Xq1KIP7osjStiplNXOnGmSk2fx2Owwyv0qcUqXLp3glX1FmHd2AmXnUA6LVeLEeTYYJ/YjYQzY4Y4xYedSJU537twR2GXLlk20CQgIEOdwvg7Gyc7OLtx3RIlT06aKVP6CGflftAh89Q3C6Vvu8PwaCr9g+q3T/aRLxNyY5WmCMHpbnrfjAWcg0CmiJQspUxgjg5UJqpfKjlTmUaRmiAnHjD93SqSxz4R6/1MofHH7lXNoNmtihENcAGtq6epiAbcrW5qSP73BovqtRXXNMm1Im0Fv95MdKqN8h9aicicLFUxc42Jtp76iqujwS0dEkqgPVAJ8ZetuKEl1PLii6Hj78ijZojGaTBktck2cnL+MklntQP/D24SG4p+WXdB3/3+0+C8RZcQr9eyIWlT1kwuFTStdAxW6tkXtof3EA23PmKmiDVcbPTpjAdyoENhf5w5Q6m8/rO3cV2hBum5cLkJCA+hBO71cbaGt4IRV/Q5uJWFJIXUKjQstYKvb9SSNRTq0XTZb8MZammv/bRcl1Lnt8IuH8fntByxp1AZ/LJ6BAiQs/I4Ym8tjZ+LQth2/a6r141r3mbhyFThDKdprVgNKJi/1otYvvmRAIpAICHwmQWL1gceo52RP+U3+b4ZOhKGT3BBBwaE4dP4R/mxaGJZxFSgKUj4NCvWOsWZCieoY8px3OFAMi8bNQgoHe5Rv25IqgvqLhE+8CLqcvwKvl+5Uu+Ka0BhkIedNJkNKCMVyDL/VKwUJ3mbzwNMzF+A8fRwsbNKKN/jsDkWRj8wQ7nfu48GRE+L8ZjMmiFwPfE7lXp1F5U8LmzQitTU32PHXeJETox6VBq9A2Sm534dHTgrpqfHEUaRB+Cb6qTtiIGlFSoHDMdlPgrUHN3eQGYKSZfl4fqKS45lEO+bx9KJVQuPQed1SLHPuIEwbdmUdhPlF+Fhwug7FpISvBufDEPMj2wefz/yt69IfzWdPUvT5U5ITX37xH/NuXKIgZs+dg6GDh/yipTyEcpTOnP8kSQQkAkkOgV37DuHJl/RoWqM4jDmpoKQ4IZDC1BgNKhfC0l330ce5SNw0FE/uEi9mvArGnupRCtjD23eiThpbjMhRVCzC3JsxOUdeXrcFh6bOxdPT9LZIxOrNqIgXXc76+OXte3HYJkd2IUjwF16UM+bPLQqDfXR5LnwNlMmv+DibPko4N4zghOnh4iYEh1c37wqtgoGhERXqeoHMVOsjhNSyShJ+CfVrKwQa4sHv8xfsHDYBe8f9jU8vXyubCV8KF/K/sCTTCjtQ2uTIiv0TZ/zMphneLNoNFgicp4+H+90HuLx+a7Ttojvg2LYFlqxaifdkS5ckEZAISASSGwIHDhzArZfBcJaCRLxeehNazxpULoyjV1/GvV/SxMdJmFBycJLsl/32biIfiPS0y4A0B0FoNX8q/jp/EN3/W4H0eeywZ9QUSnhFWSTFWzm9xtMnv7Wz78NMp3piwef+7h04SloAqoMhyACPj58VuS1yObLJ5K0QNJQaDWMyHwT7Byj6pP5Y+Phj0XT6m4GHR0/hNhUaY3NDrrKl8P7JM2FfY+GFiX06OCOm0CiQoMN+HSOvHsfgk3uQrXgRxeikWfhE2pXPb97BkwSSJY3aUr2RN8Kv4uWNO6IN/8f8cCEwxbbiU3z5+Z99jSqiz6sbt6nu1mg7hOytTRdOw79r/tWovWwkEZAISASSEgJXr15BAfuilKtEmjbi+7qakrnoi58iwCGufcdZmGhAjky2jWsiXd5c+E7ps5WVPX29vKko1kcE8WJPb+e8iHP66o/PnpOW4jtV7/TC2weP8YqcMpm4TDn7QlzdtB3H2eGRnJUOT5sLDxdXlGjWELnKlYJZqlSYV7sZFQV7JfwgLqxcj6mlqsHL7QW+kTMVE0eM5K/qJKI1WIB5R1EhuRzLCOFhYb2WQjBgH4oTc5diikNVwaOv92dKix0qBA82e7D2g/lhh9BjVHTLlDQgEx5cwt8v72DAke3C6fMiVRnldlwinefBQk0gmVDeUEGzQDKZsEaCq5YysUNml/VLFVoQsUfz/9gnwzpLZuy9eVnzk2RLiYBEQCKQRBDgui8BQYq6S0lkSjo1jcCQ+BEmYu2AyWjMmTkLr22tkZ79B3gBpvBKdnRUJ47aaDptLOV3MMaa9lFXw2w2cwKK1K+Fs0tX4zSVCldS48mjyemykVicOdJi64AR8CRhQkkcgVGWHDvn1XRW7kKvHWuFA+XSJor4+ImPL5OfwxNsHTgq3JzCjasP7EV51I1wfO4Sca4DCS2sheDy5UzsUOlDQg9T5oL5yPFyi9CicLVQpnb/zAULFcr2Yif9V7xxPdQc2gezKtYXu1iQGnPrjPDJODR1DlotmAb7mlWVzTX6vEVl1atbpEO/fv01ap/YjbTugJnYE5bjSQQkAomGwJrDrqjoYJdo4yWngY5edkHfJgVjP+Wf2v5YCxMvXrxAnU5tKXphjsLMwKxQp2aUI0FhyvjJG5kQOE8Eq+vZHGBKBbuiohB6s+fsj5xLghdf1mBkts8nTCb8lq8k1hIEU19c3jxzwfykHaBCYKSNSEEhmYLINYOFGg4ZEvvokzUFTBwxwttf338QoZvsQ8EVTDmnBBMX82KHSk5qxcRmEzaTiG3ijbUPzL9yH0eucPIsZXvRkP7jftiko+SJ+ecoEU7GZUI8cD8cIhoTYnPQDIdq+EqloHWRtC5McDrtbTuB9m2AWtV1ESLJk0RAIhBLBKQwEUvgNDgtzsLEW/Lno3UzVtEcHIvegqoDttu4FD9UXQRUFu6o5vCDFudAykHxK1Iusunssiv8IdQasyDBlC4nH/cPPxpVv+r7eBFnQYDzPASRIKAgRWn08I5og6uGRkcsQKjS94CwaNurj8/CUthv5q/ad4RtEpIq9+mGq1euoGy5chEOyS+EAJWzxsb/gDIlpTAhbwiJgERAIpBYCNhmESPFymeCE8bk69IKBgkY6xtd9IcSn98dV7aL6jMu50bVX2Ls49LoxZo3wJkzZxJjOP0bg1OQshaJPyVJBCQCEgGJQKIiEKsn77QF85DbsawwLyQqt8l8MEMjYxy5cTWZoyCnLxGQCEgEJAK6hkCMhYmz9Gb8w8YqWt8HXZtgUuKH83e88voo0hcnpXnJuUgEJAISAX1AQJlaQB94TWweYyxMjBk5ClUH9BTRFYnNbHIf7wfle3doWAdrVv8/2iW5YxI+f/LHIa9X9poN3yU3JAISAYnA7xDg1Nxm5pR0iSL7mLhCtpmZUaSU3ZznIiDAn2rFKNsZiWABNpuzkMGVcPk8U1MjKjipbENBB9Se9yn7NqexmHhc3s/npvh5nrKdaKAP/9HclRQjB8wvFEmQJpstzDKkQ4iaI6KyQ/mZgAjQdctfpQI29RyGgYMGJeBAeth1x7ZAFap3YpdTD5mXLP8OgVCKCDt27RU+fA6Cb+B3fOcH+O9OSibHjY0MkDaVMYrmtkEhO5tkMuv4mSYLCIf37cK6lQtRp2FzdOnVF26UF2jkoG5o3aEH6jRwpmRZpnB9+gCb169EkeKlcOHsccxYsAb7dv6HD+/fUEXoUOTMnRc5cubBuOG94dyyA759/UJ9DaLoO2/M/XuMKAw3b/kmvH7phpYNKmLn4cu4fP4UXr96jl6U7qA9ZXJu1Lwtnj66j449+iNrtpzxM8GE7oUEIRiYg6ryxSyaw8vTE+YlCyGMMlxK0g4CqTNmAAeVctVCU1NT7TChi6NS9UYq4aiLnEme4ohACAkSs/+7jVoVCiBvLkUYdxy7THKn89vx1Qev8PC5N1pWz5vk5pdQEwqltAJ1GjrTov8ZJ4/tR4dufZEthx3KO1VF89Z/kCYijDQOBli+cAYWr94ovleuXldoId66v0KfwaNhntIAHUgYWL9rPxxKl0fnnn1x+cI5+Pv5IlvObPjk5SkEE19KxJivYB44VqqOUzRW01Yd4fL4PpUrT4kSpcqjfdduQrE6f8YU/DlwZEJNOQH6pehH3xim03769CnSFsgj8i8kAEeySw0Q4NDZdJR/w/vTJw1ayyYSAf1GICT0O5buvo+6Fe1hlYregCRFiQCryiuWyE15b8xw+5lnlG3kzsgIsDli26Z/8e7ta+QrUFhoC1RbMa5uLk8pifN3MoUAZ08ewdEDu+Dv7wfrNFSQkvazhbVoybLw+RYM95fPsWzBLBzcsxVp06XHc8qXlNrKGp+9vfD3+CFkBmHzhily5sqHI/t3klAS0TjAlpZUlqlVWdCb7Rj5TFy6fg0W4XUz9GaOSYpRTtCVyi4bPuto8qokBbacjNYRuOvqiZL2OWBhbhptsUCtM6kjDITQs6F4AVtsOemC4BDpO6TRZSHT8aG92zBy4kQMpEKPr0kYYGIhgfMKhpAG+MiBnbBJlwHXLt1D5ep1kD5jJhIKzOFNGgfWCPn7BePm1YuwsjaFbfac6DPoLxQvWU5oJB4/uINpc1eiA2kdjEmI+OgRRH2HoW6j2tTfWRJAvog+eDx297p++RppOqJO7KjRfLTYKKJY9BtGHpGEVrBexd+0kocTEgHOypk6hy3dhL9O/pWQPMi+JQKJhcD1J16oXFqq7TXGmxbHamXy4tKD96hSIqvGpyXXhm/dX6PZH53w1t0LAZQE0YwyLHu8f4tcefLjzImjCA0LRbVaDWBfpCj27twC12ePYW2dVsDVpvOfOHZwl8hts2rTfty99QgOZK7w/vQVNeo0wlMyYbBm4+VzF3LqLIBK1Wrj/u3rcKpckzQWbzFu2gJ8+uSJQHLqLFTMASeOHhbmk7aduiEoSP+EwRgJEy/d3VGEKnVK0h4CnJo7FdUM4RtQkgoCVBuGHEkoZzr5kfxMh65yVG7qKQLvPvmCKxuqOI3r6UwSh212TM1la4Mrt10SZ0A9HyVjZlvUJcdLJivrNGjQtLXYrte4pfhU/hdCmp56jVqISA/WIjClSWsjnDZ5mzUULIDwn5LYD0KVWChhKkF+FUpKaaEoA1GnQTPlLv0TJEzJLGOVOmYlyD29P0WqQxGOgNxINARMqE7HN6mZiIj3qn+BwpRK+7+tEffLb3qNQGioIuxOryeRyMyz8MXRL5LiHwGlIKHsmYUI/kvW5EM+Om/cYhbNEfSzEBalO5CkRQS4OFlgUPT1Q7TImvaGZuHK/Q3ws6ib9hiRI8crAhz/KZ83MYI0ua9tMQJLNo47Aj+jCmNk5jA0In9N+cOOO/iyB4mAREAiIBHQeQRMKKkUWzVMeKUkwTY46AdSWhgIZ8mAgO9CK8G5KkzJ+s8pF0LJ2hoURKZoS0NxHk+Q3C7ENkWAUghqKCwoJwhHgFBuLHEOL6vct883/fOT4PkpKUbChCWFrHDlSy6lLUl7CLCqzZzjlCRJBCQCEgGJQIIgwM6TKxfPhdfHD/CiMgb8Ij1o5GSMooRWBQoVQ78hY8lhMyVu37yKPds34utnbzhWroFGTf9Ay3qNkLdgYRIuQpAuQ0aUKlsBvTo0xY2nnhgzZCAy22bHsycPYE1+F1cvnqWokUDsOXGDBAxFdswEmVACdxojqSBr5swIJVOHFCYS+Kr8pvuQoCBYpk7/m1bysERAIiARkAjEFgHOXpk5S1b06DtYaBAO79+LTOSw2b5LH1SpWT+826LFS4u8Ee6U3bJQUQeKyDBEh+79RBTI4wd3SePwFcVKlkHbTr2wf9cW/DXmbxHp4eXpgeFjp2Px3CliTeWXRH0WJmKUZ6JgrtwIDZC2+vC7SAsbhpT/3ef9R1K16WcscoJBZkPhWgXIkzqNdYINITvWXQT4LVIXKfZ86eZ8dBHjhOIpICAA2SlFdnDIdwQGhlLUR2Nh1uCIGV74+dpyFky2UXCUHe8XDpm054u3N1YtmYMbVy/AoYwjQkhDkYK0yf7+vkK44KRXY6fOQBgllwglbf+g4SMpbbdJQk0lYfs9dgI4dSZm0RzFCxdBsJ9fwjIme/8lAixMfHnxCtaUVe13pO55/Lv2en28cwfg5iWgdQu9noZkPuYIcGEmfjhzsSR2TmYbtrLQkrBnk92bizDxcS6upCBFcSW2iSuLK/E5vM3tuJhTdIKAEfXPBZ34k0k5hgHxwUWdeCwm7uvzJy/RVnzngk8/iz7xuEyiyBTz9fM77+N+Q0KCxBx4bsrCUjyOcpvbSUpYBDhUdOOaJZRXwpB8IIwpedU+MSAv+qZUwTlFCkP8+898ul8M6PqZ0rU0EfcCi4Fp06Uj7URfdP2zLyaN6g8LCgHl+6Jzzz8xpE87amuKIKoxY2pqLPZzVLveUu2aAOXViJGZw6FYcVx1uYU0ObNzYK3ezl2fGTekB4rPEzek5TfxaGjnzp149+4d+vXrF02LJLibH+A/H+JJcHZyStEgwIvx/l3bKNvgR8ou+A61KV7f5fEDnD99FP9u/Q9D+wygt8gfcKY6CEvmTaGHtymWrt1KhZj80LFFIzRq1kZkPeSCTqyCzpI1G9m/N5G6ugT6/zUe6dJnFG+byuF5Qbh07hSmT/yLikA1w58DRmLn1vV49dxV1F9YNn8aqtSoJ2zqW9evQJZsOTB7yijcdPmIAd3bkf08k1Cdf6DESMNIxb1v11YsnTsVnXoOROv2XfDs6ROsWTZX1Gp4+eIZWrTpgv7dW2HN5sO4dP4kDu3bjuXrdtHbrH476ynx1OVPrpnRs/8IzJz0txAsa9RtTAmpvPDw3i3SSLwU2oky5StRca6nOHeKElyR9+WHd29RgWpvPKA27q9fiLwU9oWLi3ssjLQXr1++wYjxs8X+IIrI27F5i9BOuL9+hSy22SLca7qMTSTeaG4xEiYyZc6Eb3ufwah8aYRxkiBJiY4AaybcrlwnYcIm0tg3b95E+fLlhYTsJzVIkfCRO5IeAuwLfvPaRYyaNIe86AOFwxunOn7h9hQnjlxA3vyFhD2ahYPqtRoihB74z6kqZNbsdihZpgKlOe5K0cQhtKBPIdNhKvreF89dXdDQuTW9ZUZ+PIaRG35OuzwYPHwy3r55RcnjAkS1yBKUPtk2a1YhzHDFx91b16Fbn6HkuW9Ji0R20pwEohwVj8pXoBDyUg2IC6ePiYXDuVUrnDl5GG06diFtxA/MmTYaqzbtJLX6d9HGOo0NCRRdMWJgV8z75z+q8fCJFrakdx11cUZsssieMxd69BsWgb2oinC175onQpveA0dF+M5f+gwaLfalz5A5/Fiz1h3Dt/U9X0WMfCZsSHXjef0OTMxl5b7wOyCRNx4dP4OWbdpEGJU1EZUqVUKpUqWEba5v374RjssvEgFdReDq1atxYo2rOo6ePBenjx/E8UO74ev7jcLuwsRCPn/GODjTwzokJBieHh+E0GFKMXwsfLAJw9/Xl7QQO6niYw3y0p+IIaPGh0e+V6zqRIWcbCK9KbLZwdXlsSgdzfZyb28uqvWDlGIKwYM1F9y327MnQpDgBaJarVpCI9K6fVcSeLg2w3dRqVLdjML7bWzSk3mDFb8/kJrU7PzJQs2gEZOxfePqOGElT5YIJCQCkUXvX4yWkgqQWFBtdw+S7K2oFLakREaAHlJ39h7C/kX/iIEfPHiAcuXKQV0L8e3bN4wcOTJemGPnoI4dO6Jw4cLx0p/sRCKgisCbN2/QrVs3nDp1CunoZUV9gVVtG9W2paURajuVwc4jV4Tq2eP9O1EoyY/KPW/YcVwE8vNCz2/8k2YtpUU9BVYsnkmLP/lMpDRHA+dmsKMUyMvnzxQCCKuquRATrfmRBAke38TUgGo2HBICDAsuqxbPRsfu/bF140oMHDEGF84cx4Bh49GkRXvcuHIBxUuVw66t20Sthu80Nv+eWLgJCQkVc2UFL9fbYa0E+1ykz5SFzrsjzCT3qI5DPgovDA4OEhoNLjiVnswkkiQCuohAjIQJnsBff/2FsetWofaIgcKDVRcnlVR5CgsOga1ZKmTLlg1fv37Fjh07IgkSPPf79+8LU0dcceAxbt++jbJly+q+MOHqBjx+Sim17QG7nHGdujw/kRBo1qwZRo0ahQwZMqBu3boYMWKE0LJpOnwgBZd16/MXDu7eCiuK2S/rWBlPHt7BU4rhz54zBy3up4XfQ/mK1UQVx7Rp01F4X1a8evEChYo44Na163AoXZocJT2FzfvB3VsoI/p4iNx5C0Ri4/VLqk9UvBSZIQLIgS4QOXPnE8WhSpZ1wj76PXL9Bq4OWaFKTVwiweLE4b3CpJLSwkL8Zn19vlJBqGtgs4hlaivKMXBO+FhcPHsCTnTOwGHjcPTgHrx/5y74MKK8A2mIZ0/KddC6fXf6vfuS5kX6q0W6MHKH9hAgIZprqxuQGi3Gd2axihXQZPF0GJFHq6TEQYDfWt7efwjHb0CHLp0jDNq7d29s2LCBVLy+Yv+SJUvA++JKLEyw4LJ27Vo4Ozv/sruePXsKp899+/aRfTjxi5CZzJ4P0wkTETxrBkL+7PFLXuVB3UJg165d6NCBonF+UrVq1cT9nCVLFoxccQXdmpQRYXfK41F9chTHjx+UqlCLxFoV9ccpm0ViE1UVVV+aTs2EnLRPX3mIzvULaXqKzrdbc9gVFR3sdJ5PfWTw6GUX9G1SMM6sx1gzwSP2+qMtHr/3QLocWePMgOxAMwSMKJ/r1t7DMNvteaQTli5ditGjR2Pz5s1CczRu3Lh4ESaCKV5J0wchq28PHDiArOSExjbrxKb+AcEYZWSKiZOnYPXsGYk9vBwvDgioL8Bs8rC1tUXFCuVQphm99dAiTav0L0fQtiDBzKnPg/dp+vvhtqoUVV+qx+W2REDXEIiVMFG/fgPsGj4E1WaMQYh/gK7NKUnyc+6ftVg8bx7FO1tGOT9++A4dOlT8tW3bFqtWrRK26CgbJ8DOLl26wNHRMcY27/hipehhso/v3o+GDRsid7VK8dWt7CcREHB3d8eECRPCR2LfLPbROX78GCZtfPJbQSL8RLkhEZAIaA2BWAkT2XNkR7rvhnh9/TYyF4psV9TabJLiwPRSFujrj1QvPqDtjHYazXDTpk3w9PQUb0oxdWjTaIAoGlWoUAH8pzXy+iKEiXKO5VGOBBtJ+oOAqomjR48ewm/Czk6h0v7+I2G0XJy2mNwY8O1bqIj5t0xtCF+fH+S8aUDfaf9XhYNkKnLwDCCrHStHzKkcjq/fDyr6ZMAmYvKboMJPwQr+UqY0gh+FmFqkMgFVHABbgLnMAlteyAJDx8LoRYCKRlFz7isgQJFFUX+ukrY5JQdVYuHX+ilt86if4xsbMrJxpxiFhqoO9+/6dTgxb5nqLrmdAAiEBoXgUN8RWEBaiZhQ+vTptaYliAmf8daWy/qxecVPasriDdNE6OjLly/g0GYnJyewhuKff/6BUpBIqOFZwH5FCaHKFcpDAoKxyElRNKctuFZC55bOqFC0INjxkalhNSfs3bGJnCavo1rZEvCm5FgH9uxEafvcWL5wtviNBZEzZr9uHShKZBZGDRmAi2dOYPbUSVTYqQ2mTRiDprWqkIBihPqVy2PS6OEYPrAvrl85n1DTS5L9GhmEkVAWP4tekgQoDpOyNI+1GKAYlXKtMMVKM8EnmpFoPrR9Z1ynvBM5y5UU4U28X1L8IWBK9Td29e2P04ePIk2aNPHXcVLsibNf1qsNZEiXFGeXZOe0ceNGuLq6IjMVEUwsYn+ENDbp0HvwGKxaughvKFNh78GjKBFcejSkjJiFizlg97b1aNyiHVq26yZqKdhmy4nKNeqK3BMlSzti5ITZIuKCwzY5M+WoSXPp/HQiidUXKhBV1KEM3lFSqx+UfbMEhYemIE1GOadqGD5+KsiKgxkTp4qkWYk1Z30fp1DONLh89yUqFLdDaJh2HW31HUsl/+yoe+6mGxzyRE6AqGzz209OjpjZDihUMGa1OdQ7bk8e2HcXrESwjyKKQP24/B47BIxMTPDplTsO9hiK9XMXSEFCExj79wEopA4dNTMFadKlbJOwCLBzIidYS0xBInxGpC/PW8AeLhRCWq1WAyoBHUwhnkY4e+KwqKfh5kq+GkQc/tm+a2+cPXlI1FNgrcaL5y7iGOeH+PrlszAnpqZaOe/fvRFplAPJLhIWFoq9lJZ74exJqFaT++c6HCZYt2IZGlStIvJQiE7kfxohUKpARpgYhOLO03ekNTKEIduKJMUKAcbOiLQ8Nx66I6XJDxTOFQdhgupEwYcSt1Ga+jjpN9hR6tyFC9g3arJIuBKrmcmTIiBgbJYC1zZsxZUJc3Bk524ULVYswnH5RSKQVBDgsEltEQsFwZSZaty0hahIoagcen3jyjVUrl5bpODOniOXKL7FGS0p1xT5RgRT3YwHSJWKBI6TR+BIeSvqNW5JGTQ3kO+FJa5fPg/bbFlRmEpQP3vyUCTHqtuoOZb+uwMLZ04UmgmOcmrbuSft20ly79bkZYaMhwvdsno+2KY1xj87LuP520/CgcLYmAq7Uclv+acBBoQVa+Vc3b2wfPtl5M5shuZV88Ttyty7T+eTVriQfezNHEoOzMkrqW/Tllg7YwHqjhpENTtClYfk528Q4AcaF+4yIqnO2/0tHhw/jdAHrmhRsw66X5n5m7PlYYmARCA2CHBOis/eXrh2+ZxITPXovhv8KRkUp+S2L1JCJKFijcTe7VtEmuzN69ajU4/uotz0/buPhVcll5vmNp88P6IgFXI6uHcr7t25BrMUnFXzDxzZv1OMcf/ODXLIDILvtxBy7rSglN97wQWjOOumDyWwsrS0ijKkNDbzSurnsC6iTMGMKJrbBtceeeAmPSu5eJYuEfvGbNq0kSqKmoETsulCyLIqPiwc26azwOTuZHoLr6Cr2iKG2xeoUjMLE+XKxC5pVVTDzZlDb9Jv3VCpR8dY/zhEbDX9SPktIUnST9WcUkHn9/kLXE5fwMNdB2FOv4klixZpNyJCDXSOCGFnuPXr1/82aZXaqfKrRCBeENA0aVW8DJZEOkmKSav06dI4ODgI0/TJkyf1ie2Y80q5hVClFnD9Jv1diJuZQ3X0IUOGoFaG7Ng7YYYItVI99tttWmSDfP2wvHVXfHnz7rfN9bEBC0jbR0zEm2Ub4bliC/z+3YU0p2+iU6FSOHfgEO7cuqVTgoQ+YhzO870H4ZtyQyIgEZAISAQSAAGO4rh2A8KjmLLVxjqaIyrW/qK8+nl278ZUytTYkNJtK9/Ao2qrui/omw/WdeiNzctXYMHFE7Cxy5HkokNYmChtnQErFixSnbrcjk8ESKuF3FSb4yM5BL17DqROHZ+9y74kAhIBiYBEQIkAJ1C8eBo4QRqYdDbxp5lQ9t+0aVP8t/QfuM1YjuNzliCQBAVjqs5nQL4B7COg9BMwpX0hZHPcNmYKPqzehrsXLosMiu+PnIFZ6qizPCrH0LdPY/KJOENYNG/eQt9Y1z9+s9qSCz6VfLx4Wf94lxxLBCQCEgF9QqB0SWDkMMFxvGomlBjky58f66k41OVLlzCozwBkypsbGSuUgnG2TOQPYQRvCnt0v3AV767exuZtW1GGqvYpqbpTJdzauR8Fq1eKte+Fsi9d+fT95A2XY2dRb/m/usJS0uSDfVI6tQfOXwCo8BfqUt4JSRIBiYBEQCKQ4AgkiDCh5Lo81Wq4cuM63rx5Q57Q7qIEL3tBWxbPhqwNWyFHjhzKpuGfU/+eBrvSJZCvsiOloyUvUT0n1sTcPnAU+8n8IykREOjSERgyAjh1BDh+CqhZLREGlUNIBCQCEoHkjUCCChNKaLmSJP9pSn1at6PUum+F7wSpJzQ9TTfbka+EwYNnKDSukG7ylxS5Wr0caNYKaEUJrNyfQRRhSIrzTAZz0tTvKhlAofEUf8gKFhpjJRvGAoGXrwDKqUJx0xFO1skYzDatW+PmPxuQIpVFBGb17Qtnsjw+fQE6t/oDxsaJIrfpG0QJw2/jBgCZ2lCnZsL0L3tNNARSW6SQ6ZNjgDZb+rw++yGNJeXvliQRiG8EPngARUoBzq2pFhLlM1AhnRQmslA57YI2GXD/wDFFiT0VhvVp89Nrd5h5eKNFK3pLlpR4CLDEfPUc8N86qZVIPNQTZKTCdtbwD6Rc1JI0QsCQEnJdf+COYnlljRqNAJONYoZA115c8lbxXKXMo6oU8ZvqES1vr1y9Gq57DuO7nmbU5GiV+2u34d8VK7WMZDId3soqmU48aU27TMFMuPnIPX6y9SUtaKKcjfc3f5gYfYddZnn/RwmQ3Bl7BIaNAg4dJo0ECfeL50bqR2eFCeZ0aOfuuLvrAEyoXoU+EeeUuLB2MxzSZ4EtaVkkSQQkArFDIEMac9hlSomT11xFB4ayDHUkINm0YURviV98AnD17gt0a0C5ViRJBOITgX9WAbNIgDCnkre3KVFV2rSRetdpQ37zVi2xrOZKvLSnAi+FC0ZiXld3+Hp9guH9Z5ixY6euspg8+eo3CJg7i8o36vRtnzyvzS9mXb1kNrh7+GDRritwKmGHvNnTUw0MuoZ67pv9iylrfIgh8Prih5tUAdLIIAx9nAtrfK5sKBHQCAFvb6BXd2pqAmxeDxQvGuVpOv9UPXr4MEpVrYRmq+fjh5rDR5Qz0vJOLkt8cPgkXDxwWOTJ4NBQSTqAwOS/STVHuSf2HgB2bwVKOugAU5IFTRHIltES03s54sYTDzx0eYmQkDBNT433dlwo7P79e7h48RK6du2iZedqA1ilSoG6ZW2RM1PqeJ+r7FAiILQQO/eQ8E6iKzu3R0M6L0xwFMSyGbMxeMgENFo0DSEBgdFMRfu7f1AFu38798W2xcthZW2tfYYkB/9HYOxI4OYtYP8hoFRZYAEJFv37/P+43NJ5BAxJMGcfCv7TNvm9Oo81Fzej2fopVJqAVL+SJAJJGQHnxr+dnU77TCi55+RXA9t2wBEKszROYarcrVOfpvRAObtoJWYOGY6yZWmxkqR7COzeBgwfDBjSPTSgP1C2IvD8he7xKTmSCEgEJALaQIC1D1R4MjakF8IET6wV5Z6onM4Wl9ds1r3MmHQBjs1YgDp5Cgk+Y3Mh5DmJgACbnKZNBh5QyVxLG8DPD8hllwgDyyEkAhIBiYCOIsACBNcz2riZ3CKoLlbD+pTszz3GzOqNMMEzmzRlCsqZWeM0aQBMLXRDtWhEznyHJs1CW4fyGDZ0aIwvgDxBCwgULAC8J43EWvJQVif+YVF+EEkSAYmARCBJI0D+fdizD+jQFchLjrvt21DYpz9Qm/wifsTc10/nfSbUL+boMaPxfeIknJgyF5UGUQINLRE7VgaT/8bWvsMxtvufaE2aE0l6hIAFZVctFYUT5pevQIlyoEIyCmcjpwqU8a0QYJsFKEBZNdUdaoMp5trTS20/CSTm5kCaNJEB8fUFvn2j/ao/VmrPbfkcVWLBxov6Vs+1wsliMmRQG5NODAlRlF9X55FDq6MI5RKaGZ5vhPY0phX5+0QlrFOUEni+qkRh0MiQnkxHau8loaHEy0dqqTpP+spmShvSCqmTfwDw+XNEXnj+VuRUmCqVemuAPcwD6W1KlXgezItaml/wQ9ODeVEjU/JOTxdFcif2y+L+VXFhXrjksnpFY27z+YsikY9q97yfyjKDsuBGIPKrErxwf6rE7dJHwQvP8RPhrs4LZweOKpcK37d+tCCoE/NC1YsjEPPy0RPgT1XibL2MozoF0bXn+1GVFw6pYZ+RqHzEfHwAH7rf1Skt3etmahk6GQ/mha+VKvG1zEj3ujoF073uSe0j8EKNzKnfePndEeb8e1IlvseZF/UxVX93hF16+r1aMVb827KOIt8HX58vdM9E6Ifmz9eTn0vqFOPfHeGiTpxoKneuiHsZ25btFPO0pN8Ym33nzgQc6fkXC9I7YYLnOHb8OFQ6exZ9ew1B/enjYEE3Jzs/JhZxmuz3D5/g9MxFWDtvIUqXKZNYQ8txEhoBXkj4AeD9DthFUR/8JxZE+rHzAqm+UN24BVQoT23ohxlO9EBs2orO3RK+J3xj4VJg9HD6qtZ+wyagXZvwZmKDF+7KtYDH9yPuT5eJtCfPIgsfDx+RIFQ8ct+1GwJH6A1EndasJyfU3pHbM4/9/ozYmn9fDZ2BKxcj7k9FC8OLx5EXZdfnQEESviLMk/qoWA04dyJiH/xt63aAi7RFaE84Tp4GjBkZuX3bzjSngxH3m9KD+MldwC5nxP3ub2hfHtpH1zCcaLskPTRvqM2Hj++nfls1pw21azR0BMXa/x3eg9jghbd3T2DLfxH3G5hSPP5VoFiRiPtZwMqRjx7g/hH32xcFHtK9pE4nThHu9WivGi89+wDLF6u3BkaMpf1LaD8JM+FEi+CZk3QvVQzfIzZ4sStQjARnEhBUKRfx50b3kjpR9AqqV6W9ary07UQq8n/VW5NJkRam6VPU2tM9sHc/0Kh+xPa8wJZyBN68jLg/S3ZSubtGFlZv3QbKl1Xrm+6XJi0oWmtbxD7426JlwKhhkduv20hv5m0jtmfhoGotuh73Iu5Pm5F+dy6RF/xHT36GSypwOWpAwvsPela0pH6PHYjYB39bS7+7vvz7UsNxAV1PdadwFrIa07146XzEflKRwO9Gvzt1oc/tueKlJ0LffCphoy7A8u6VP+8VJ8JeXdjg4zEg+iXoJ1WuXBkH1v+HuvXqocLI/rAtXhhG9MP+ERVg8TRFTkbF0STXN+2gh9BDPLx4JZ56lt3oDAJZMikepKxBOHmarjM94J/SA8TVLfIDjZnmt+b8tBCoahXC6EGSJ1fUU8pM/RcpSc8RlZ8ev41F9bbOb0KF7eltnh5OqsRvmXxMnfgNsSAJE6rtv1Pf+fKqt1R8z5geKOQQ8e2ZH6RRvQnyGWweUtcGpE4Nio2M3L858VyY5ql67ActJKzdiYpYQ6DOO/OSOXNUrWlOeYAPpSIeo6yzQvMRca8CjxLUNsKzgR7S9gXVWyq+85tzAbqmZtSfkpgXLm6kTtwn+90UV+OFNQ3Mjzrxfg5LDgyMeITnExWxYKt+fzEvUVRcFqfnoMW3GPGi+tbLib5Yq6JOxrSYOdD9wpoVVeI+oiLWyqjzwgJ2dH5HWW2BoqUj3qt8D0T1ts7atmKEubqmiH8vqnNR8sVv8Oq88O8oT25li4if3I/6/ci/U5u0EdvxNx6vUCH6XZhGPMZtDVUFgJ+H+TrbE46mdM/Tuc9cXCjnhwFy5SehLCpirWKhEhH752vK+6Mi/s2w5k6V+FpElS+HNT5cO0P50sPX+AatUzmieQZ0bK/aa5y2DWjxpV+D/lIo3cwb1q/HmAVz0GLWRGSkH2V8h4+yScOYVMV3dh/ElWVrsXvLVhQvXpye51E80PUXykice5Ia0c7ODusJX2dn50jH5Q6JQHJFYDWl+x8zZgzc3NxkaGhyvQmimXeRkiWRlkwtZ0+ciKZFIu/mkPiipCFjQTYBKYpXigQcLQG65jwUnbt0Qdt27dCsUWM8zpoBdrUqIyOpWDkNNyeRivhGohkTrIVg58pvHp5wu3YLXqcvomLhEtjq8kyzDmQriYBEQCIgEUh2CJjQ+7mxLr2jJ1KCPr0XJpR3qik5F+0/chhfyQ648b9NmN6iM3JXdoRjt3ZIRaqzH6TBEIIFabBCqQqhETtfqRFrGgxILWRCqiKX85dxdulqWJPtac7kqSjZrT/5xpBqTZJEQCIgEZAISAQkAhEQSDLChHJWVmSP69O7t/g7duQINi9YB78fYfC1Somw1KmQ0tICT0nLUL5DK+GO9Z2EjCB/f3wju2HI568w9w2AAZUNL1qkCA6vWo880dmblQPKT4mAREAiIBGQCCRzBJKcMKF6PWvVqQP+CyNTRwg5uLB/RfVq1fD60SP0bdaKoojMkIpCYjLly4T8+fKTj5Il+a0YiVz7Sd0fQhUnuS0RkAhIBCQCEoG4IJCkhQklMCwg8J87ZfW6d/8+OVIHIpSEi85//qlsIj8lAhIBiYBEQCIgEYglAkk7HEENlJEjRwpBgncPGDCA8u8Eq7WQXyUCEgGJgERAIiARiCkCyUaYePz4MTZt2hQBn379+kX4Lr9IBCQCEgGJgERAIhBzBJKFMMGpNIb+rJvBOSOUtHfvXsqaTFngJEkEJAISAYmAREAiEGsEkoUw4U159g8dOiQSTTVt2hSZMmXC8OHD4eHhgfnz58caPHmiREAiIBGQCEgEJAKUHDQ5gPD333/j4sWLuH37NvLkyUPZhlNgClUg5QiPW7duwYcL0kiSCEgEJAISAYmARCBWCCT5aA4OC2VhwkQtlSjvZ6GCTR3+lGdCkkRAIiARkAhIBCQCsUMgyQsTyrBQJTzsM8E+FKolSVJygSRJEgGJgERAIiARkAjECoFkYeaIFTLyJImAREAiIBGQCEgENEJAChMawSQbSQQkAhIBiYBEQCIQHQJSmIgOGblfIiARkAhIBCQCEgGNEEh2woRqngmNEJKNJAISAYmAREAiIBH4JQLJTpj4JRryoERAIiARkAhIBCQCMUZAChMxhkyeIBGQCEgEJAISAYmAKgJSmFBFQ25LBCQCEgGJgERAIhBjBJKdMKGaXyLGaMkTJAISAYmAREAiIBGIhECyEyakA2ake0DukAhIBCQCEgGJQJwQSHbCRJzQkidLBCQCEgGJgERAIhAJASlMRIJE7pAISAQkAhIBiYBEICYISGEiJmjJthIBiYBEQCIgEZAIREIgyRf6Up+x9JlQRyRpfXd3d8fLly9RsWLFKCcWGhqKVatWiUJv2bNnR7Vq1WBubo41a9bAz88PtWvXRr58+aI8V+6UCEgEJAISgagRkJqJqHGRe+MBgZCQENSpUwdLly5FrVq1sH37dtFrnz594OTkhJ07d4rv3t7eaNKkCerXr4/mzZujRYsWcHZ2xt27d9GwYUNcu3ZNLP4jRoxA2bJlsW/fPnHe+/fv0aZNGyEQbNu2TbRp27atOL9u3brYvHlzpFkYGxtj7dq1cHR0FEJHyZIlRRt7e3uMHz8eHTp0EN8bNGiAfv36oXTp0li2bBkeP34seOLx+FzmSZJEQCIgEZAIKBCQwoS8ExIMARMTE9jY2GDAgAFCCOAFeMyYMTh8+DDKly+Pli1bwsvLC7zwZ8iQAYULFxYCBgsau3fvRubMmREWFgYWGhYvXgwWGFiT0LhxY7i6ugpB4tWrV7Czs8P9+/fBWifuI0uWLEIw4e2oKE2aNChUqBBYqGEh4dOnTzh79ixmzJiBN2/e4OPHj0idOrUQfjp27CiEDD5+8eJFPH/+HJ07dxYajO/fv0fVvdwnEZAISASSHQLJzsyR7K6wlidcvXp1lChRAkOHDhWcVK1aFcHBwdizZw8yZcoEX19fIRicO3dOLOozZ85Ep06dMHDgQCFgVKlSBSyUHDp0CEFBQWKBZyHj1KlTmDJlitAaHDhwQJzDA1SoUAGfP39G3759o525oaEhWEPBmhMmS0tLsNaDhRHOQ8JjsUaFhRTu58GDB/j69avgZ9iwYUJDsWjRIri4uKBAgQLRjiMPSAQkAhKB5IKA1EwklyuthXk+e/ZMvO2zj0K3bt0EB2y2sLa2xh9//CHMBSlSpBALOQscSj8HCwsLWFlZCc3DuHHjcPToUSFcsPDB55UpUwZsluD2fD73yRoOJvZ3OH78uDBXsCDCwooqBQYGCkGEzSpFihQR/U6bNk00YSGEt5lX9r1YuHChaMMaia5du4o23bt3B5tGihYtKgUJVWDltkRAIpCsETCgN7EfyQmB0aNHY8OGDeKt0szMLDlNPcZz9fT0FG/n69evF2/jMe2ATRSsTVBSypQpxZv/t2/fhL9Crly5kCpVKnGYtRX8xyYIdpLk89zc3MBtWGPAQgNrB9i8kTdvXnEeaxbYzMEmEtYuGBkZib64fzaNsGbB1NRUObz45Ns9ICBAbLOGgvvlcZlXvh94m8fje4SFFzbB8DmsyWDhY8WKFULTwv3y+ZKSJwKrV68WJju+R/m+liQRUCLg4OAgnmMnT55U7koWn9LMkSwus3YmyYu7+oOWF2rWOhQrViwCU7yoDx48GMWLF8fy5cvRq1cvoX1QbcTnKR0meT+fE1XkBfs78F9UxOOr88T9KEkpYPJiwcIKj8kakOvXr4uoDzZznD9/XtlcfkoEJAISAYkAISCFCXkb6AwCS5Ys0RleLl++HIEXjuqQERwRIJFfJAISAYlAOAJSTxsOhdyIDgHOwyBJIiAR+D8C/JtIZhbi/09ebkkEokBAaiaiAEXu+j8C/NDs0aMHWv+vvXsLqWKL4zj+P2pIF6NSK9TQirzgQ/ceIgx6ijCEMDBKhaQHiTKEeggKwrcoyqBCM4qih9AievFFDdHooUA0hShCslC6WEagFVnn/P+H7XGrnS6zG7d7fQfCPbNnzVrzmcH57bWWu4ICfnn+x8IrhwV0+E6/eyQhIcFhBU4dgWAB58KEjpnrwqeK4BthojWdZKhfNjUwMCAdHR0T7cI2BJwUyMnJsQm6gUm/TiJw0giMEnAuTIw6d17+QEAnH167du0He/E2AggggIDrAsyZcP0O4PwRQAABBBDwKECY8AhIcQQQQAABBFwXcC5MBOZMuH7hOX8EEEAAAQRCJeBcmAgVHMdBAAEEEEAAgX8FCBPcCQgggAACCCDgSYAw4YmPwggggAACCCBAmOAeQAABBBBAAAFPAk6GCb6wytM9Q2EEEEAAAQSCBJwME0ECrCCAAAIIIICAJwHChCc+CiOAAAIIIIAAwCZCFwAABXtJREFUYYJ7AAEEEEAAAQQ8CTgXJvjSKk/3C4URQAABBBAYJ+BcmBgnwAYEEEAAAQQQ8CRAmPDER2EEEEAAAQQQIExwDyCAAAIIIICAJwHChCc+CiOAAAIIIICAc2GCCZjc9AgggAACCIRWwLkwEVo+joYAAggggAAChAnuAQQQQAABBBDwJECY8MRHYQQQQAABBBAgTHAPRLzAs2fP5MqVKz99ni9fvpRLly5JS0vLT5eZaMevX79Kf3+/vHnzJujtgYEBeffunfAfzgWxsIIAAlNYwLkwEZiAyS/yKXzX/kLT9YH+6tUrKS4utlJ63b98+SLDw8O2rj/13+htg4ODcvPmTTl16tRITVousK9u1OOOPoauj11u3LghCQkJkpmZKbNmzZLOzk7RoJKRkSHz5s2zdS0TOK62QY8zui59j3t1rCzrCCAQbgLOhYlwuwC0588J1NTUSFpamuTn51sl+lDesWOHrF27VrKzs+Xy5cuyYcMGmT59uixbtkyWLFkiDx8+lMWLF8uJEydk2rRpI407ffq0HSslJUWOHj0qR44ckQULFsj79+8lKSlJ9u3bN7Jv4EWgXu2Z6Orqkv3791uZXbt2WTuOHTtmQWHFihUyY8YMWbVqlSxfvlw0hMyZM0fi4uKsLXv37g0ckp8IIIBAWAoQJsLystCoUAjow/vevXvy4MEDO9yjR4+krq5OVq9eLWvWrJHjx4/bcMamTZuku7tbDh8+bA983fnTp09BPQLnz5+X58+fy4sXL6SiokLKyspkaGjI9omKirJwMbbN2tOgy8ePHyUxMdF6P3T9+vXrMnv2bAsNb9++ldLSUsnLy5OOjg7Zvn27tLW1SXJysg2F9PT0SG1trfT29mpRFgQQQCAsBWLCslU0CoEQCOin/bt379qnfj2c9hDosMGiRYtk5syZ1hPx+fNnaW5ulpMnT4r2ZGzbtk1ev35tD3Z90D958sR6LXR47Pbt2yMBQ4cpNIxoKFm3bp0sXLhwXIs/fPhg2+7fvy+3bt2y3pA7d+7I3LlzZfPmzaJB4eDBg9YbodvPnj0rFy9etPkduv/u3bstVERHR1uZcRWwAQEEEAgTAcJEmFwImhF6gdbWVikoKLA5EzqMob0S1dXVcujQIYmJibHgoL0KK1eulKamJikvL5c9e/ZISUmJ1NfXS2xsrGzdutV6Cq5evWq9BtrboD0HWr6oqMjKaFiYaNEJnEuXLrU2rF+/3noYtB0aMlJTUy209PX12T46xKIB4syZM7Jx40YLQBpQdBilvb3dhmImqoNtCCCAQDgI/PXPOPK3cGiIX23QceoLFy7I48ePRz6x+lU39UyOgN7igYm3Y1uQm5trD+tz585ZcBj7/vfWddhDeyo0hOiQyO8uWjYnJ8cmZmqAycrKkoaGBtmyZYsFm8rKSgsuv3t8yiGAgL8COvdJex8bGxv9rXiSa6NnYpIvANX/eYHvBQmtubCw0Hoo9C8ufmXR3gwdRtm5c+evFBu3r7btwIEDosMt8+fPt/fT09OlqqrKJmBqzwkLAgggEO4C9EyE+xWifQgggAACU0aAnokpc6m8N1S7lp8+fWqT8LwfjSMggAACCCAgNiTpZdhzKhs6N8yhs/l1Vr/+bf//dX9P5YtK2xFAAAEE/BfQZ4pO0o6Pj/e/8kmu0blhDv0+Ae2VIEhM8p1H9QgggECECugETB3ucGlxLky4dHE5VwQQQAABBPwQYKq4H8rUgQACCCCAQAQLECYi+OJyaggggAACCPghQJjwQ5k6EEAAAQQQiGABwkQEX1xODQEEEEAAAT8ECBN+KFMHAggggAACESxAmIjgi8upIYAAAggg4IcAYcIPZepAAAEEEEAgggX+BgHoSsnLvt/nAAAAAElFTkSuQmCC;opacity=70;" vertex="1" parent="1">
          <mxGeometry x="330" y="40" width="426.81" height="340" as="geometry" />
        </mxCell>
        <mxCell id="449DA2jyop-zjnHFzWrN-10" value="&lt;font face=&quot;Courier New&quot;&gt;Privacy Preserving Protocol for Smart Auctions&lt;/font&gt;" style="text;html=1;strokeColor=none;fillColor=none;align=center;verticalAlign=middle;whiteSpace=wrap;rounded=0;fontStyle=1" vertex="1" parent="1">
          <mxGeometry x="480" y="380" width="230" height="30" as="geometry" />
        </mxCell>
      </root>
    </mxGraphModel>
  </diagram>
</mxfile>
